<svg xmlns="http://www.w3.org/2000/svg" width="24" height="24" viewBox="0 0 24 24"><path d="M12 2.2c3.2 0 3.6 0 4.9.1 1.2.1 2 .3 2.5.6.6.3 1 .8 1.3 1.3.3.5.5 1.3.6 2.5.1 1.3.1 1.7.1 4.9s0 3.6-.1 4.9c-.1 1.2-.3 2-.6 2.5-.3.6-.8 1-1.3 1.3-.5.3-1.3.5-2.5.6-1.3.1-1.7.1-4.9.1s-3.6 0-4.9-.1c-1.2-.1-2-.3-2.5-.6-.6-.3-1-.8-1.3-1.3-.3-.5-.5-1.3-.6-2.5C2.2 15.6 2.2 15.2 2.2 12s0-3.6.1-4.9c.1-1.2.3-2 .6-2.5.3-.6.8-1 1.3-1.3.5-.3 1.3-.5 2.5-.6C8.4 2.2 8.8 2.2 12 2.2zm0-2.2C8.7 0 8.3 0 7 .1 5.7.2 4.6.4 3.8.8c-.9.4-1.6 1-2.3 1.7S.4 4.7.1 5.6C-.2 6.4-.2 7.5-.1 8.8 0 10.1 0 10.5 0 14s0 3.9.1 5.2c.1 1.3.3 2.4.7 3.2.4.9 1 1.6 1.7 2.3s1.4 1.3 2.3 1.7c.8.4 1.9.6 3.2.7C8.3 24 8.7 24 12 24s3.9 0 5.2-.1c1.3-.1 2.4-.3 3.2-.7.9-.4 1.6-1 2.3-1.7s1.3-1.4 1.7-2.3c.4-.8.6-1.9.7-3.2.1-1.3.1-1.7.1-5.2s0-3.9-.1-5.2c-.1-1.3-.3-2.4-.7-3.2-.4-.9-1-1.6-1.7-2.3s-1.4-1.3-2.3-1.7c-.8-.4-1.9-.6-3.2-.7C15.7 0 15.3 0 12 0z"/><circle cx="12" cy="12" r="3.2"/><circle cx="18.4" cy="5.6" r="1.4"/></svg>