<?xml version="1.0" encoding="utf-8"?>
<!DOCTYPE svg PUBLIC "-//W3C//DTD SVG 1.0//EN" "http://www.w3.org/TR/2001/REC-SVG-20010904/DTD/svg10.dtd">
<svg version="1.0" xmlns="http://www.w3.org/2000/svg" width="1024px" height="1024px" viewBox="0 0 1024 1024" preserveAspectRatio="xMidYMid meet">
 <g fill="#11232d">
  <path d="M481.5 746 c-0.4 -0.6 -0.7 -14 -0.7 -29.7 -0.1 -28.6 -0.1 -28.6 2.2 -30.5 2.7 -2.2 4.4 -2.3 6 -0.3 1.7 2 1.5 58.2 -0.2 60.2 -1.3 1.6 -6.4 1.7 -7.3 0.3z"/>
  <path d="M346.2 743.4 c-1.9 -1.3 -2.2 -2.4 -2.2 -7.5 0 -7.5 1.2 -9.9 4.8 -9.9 4.2 0 5.2 1.7 5.2 8.7 0 5 -0.4 6.7 -2 8.3 -2.4 2.4 -2.9 2.4 -5.8 0.4z"/>
  <path d="M364.6 742.8 c-1 -1.4 -1.6 -4.3 -1.6 -7.6 0 -4.3 0.5 -5.8 2.5 -7.7 3 -3.1 4.9 -3.2 6.9 -0.3 1.9 2.7 2.1 11.3 0.3 14.8 -1.7 3.4 -6 3.9 -8.1 0.8z"/>
  <path d="M384.9 742.9 c-1.9 -1.9 -2.1 -3 -1.7 -9.7 0.4 -6.3 0.9 -7.9 2.8 -9.4 2.8 -2.2 3.3 -2.2 5.9 0 1.9 1.5 2 2.4 1.4 9.6 -0.4 5.7 -1.1 8.4 -2.5 9.8 -2.3 2.3 -3.3 2.3 -5.9 -0.3z"/>
  <path d="M801.4 742.9 c-1.6 -1.8 -1.8 -5.6 -2.2 -54.3 -0.3 -28.9 -0.2 -53.6 0.2 -55 0.8 -3.4 4.9 -4.5 7.7 -2 1.9 1.7 1.9 2.9 1.5 55.5 -0.2 29.6 -0.7 54.3 -1.1 54.8 -1.6 2.6 -4.2 3.1 -6.1 1z"/>
  <path d="M405 742.1 c-0.5 -1.1 -1 -6.5 -1 -12 0 -8.9 0.2 -10.1 1.9 -11.1 3.4 -1.8 6.1 -1.2 7.1 1.6 1.6 4.2 1.2 18.6 -0.6 21.2 -1.9 2.7 -6 2.9 -7.4 0.3z"/>
  <path d="M424.4 741.5 c-2.3 -3.5 -1.7 -25.6 0.7 -28.1 1.5 -1.4 2 -1.4 4.5 -0.2 2.9 1.3 2.9 1.3 3.2 14 0.2 11.7 0.1 12.9 -1.8 14.8 -2.7 2.7 -4.6 2.5 -6.6 -0.5z"/>
  <path d="M519.6 741.8 c-1.4 -1.9 -1.6 -7.4 -1.6 -39.5 0 -36 0.1 -37.4 2 -39.3 2.3 -2.3 5.3 -2.6 6.8 -0.7 1.3 1.5 1.1 78.4 -0.1 80.5 -1.3 2 -5.4 1.4 -7.1 -1z"/>
  <path d="M838.6 741.8 c-1.1 -1.8 -1.6 -9 -2.1 -32.4 -0.4 -16.6 -0.4 -31.1 0 -32.3 0.9 -3.1 4 -2.6 6.6 1.1 2.8 3.8 3.7 14.6 3.8 42.8 0.1 15.3 -0.2 19 -1.5 20.8 -2 2.8 -5 2.8 -6.8 0z"/>
  <path d="M264.5 741 c-1.6 -1.8 -1.7 -3.5 -1.3 -16.6 0.4 -11.8 0.8 -14.9 2.2 -16.2 1.5 -1.5 1.9 -1.5 4.4 -0.2 2.7 1.6 2.7 1.6 3 15.9 0.2 11.6 0 14.8 -1.3 16.7 -1.9 2.9 -4.6 3.1 -7 0.4z"/>
  <path d="M284.3 741.8 c-0.6 -0.7 -1.3 -5.9 -1.7 -11.5 -0.7 -10 0 -13.7 2.7 -15.4 1.5 -1.1 4.7 0.2 6.2 2.5 2 3 3.2 22.1 1.5 24.1 -1.5 1.8 -7.4 2 -8.7 0.3z"/>
  <path d="M444 741.1 c-0.6 -1.1 -1 -8.9 -1 -18 0 -14.8 0.1 -16.1 1.9 -17.1 3.2 -1.7 6.1 -1.2 7 1.3 1.4 3.7 0.1 32.6 -1.6 34.3 -2 2 -5 1.7 -6.3 -0.5z"/>
  <path d="M462.4 740.5 c-2.4 -3.6 -1.6 -39 0.9 -42.9 2.2 -3.4 5.4 -3.4 6.7 0 1.3 3.4 1.3 41 0 43.5 -1.5 2.7 -5.6 2.4 -7.6 -0.6z"/>
  <path d="M500.4 741.8 c-0.4 -0.6 -0.7 -15.8 -0.6 -33.7 0.1 -32.1 0.1 -32.6 2.3 -34.3 2.8 -2.3 4.6 -2.3 5.9 0.1 0.6 1.3 1 13.7 1 33.6 0 19.9 -0.4 32.3 -1 33.6 -1.2 2.1 -6.4 2.7 -7.6 0.7z"/>
  <path d="M538.8 707.9 c-1.6 -0.9 -1.8 -3.3 -1.8 -27.7 0 -28.9 0.4 -31.2 5.4 -31.2 4.5 0 4.6 0.8 4.6 31.2 0 28.8 0 28.8 -3.2 28.8 -1.8 0 -4.1 -0.5 -5 -1.1z"/>
  <path d="M347.1 504.5 c-29.2 -5.2 -59.2 -22.1 -76.4 -43.3 -15.9 -19.4 -25.4 -38.8 -31.8 -65.2 -0.9 -3.6 -1.4 -11.6 -1.4 -23.5 0.1 -20.7 1.6 -30.5 7.2 -45.5 14 -37.9 41.4 -64.9 80.3 -79.3 14 -5.1 21.1 -6.2 40.5 -6.1 17.5 0 23.7 0.8 36.3 4.6 7.3 2.1 9.8 4.2 7.1 5.9 -1.1 0.6 -1.1 1.1 -0.1 2.1 1.6 1.6 1.5 4.8 -0.2 7.1 -1.8 2.3 -5.5 2.1 -16.1 -0.9 -10.9 -3.2 -33 -4.4 -44.1 -2.5 -9.2 1.7 -24.5 6.6 -32.6 10.7 -9.6 4.8 -25.2 17 -34.4 26.7 -12.6 13.4 -23.9 36.3 -27.4 55.8 -1.8 9.7 -1.5 30 0.5 39.9 2.2 10.9 8.8 30 12.8 37 4.9 8.8 16.8 24 24.1 30.7 12.5 11.8 28.8 21.6 44.1 26.8 7.8 2.6 21 4.5 32 4.5 7.9 0 12.4 -0.6 21.5 -3 23.9 -6.3 41.3 -16 57.1 -31.9 10 -10.1 14.5 -16.2 20 -27.3 3 -5.9 3.8 -6.8 6.2 -6.8 2 0 2.7 0.5 2.7 1.9 0 1.1 0.4 2.3 1 2.6 0.6 0.3 1 3 1 6 0 2.9 0.5 5.5 1.1 5.7 0.6 0.2 -0.5 2.6 -2.4 5.5 -2.2 3.2 -3.1 5.4 -2.3 5.6 3.5 1.3 -19.3 28.7 -23.9 28.7 -1.1 0 -5.6 2.5 -10 5.6 -13.3 9.4 -31 17 -48 20.5 -12.3 2.6 -33.6 3.3 -44.4 1.4z"/>
  <path d="M340.2 482.5 c-9.6 -2.5 -24.9 -9.8 -33.4 -16.1 -3.8 -2.7 -4.8 -4 -4.8 -6.2 0 -2.9 1.1 -3.8 7.5 -6 1.7 -0.6 4.5 -1.4 6.3 -1.7 1.8 -0.4 3.9 -1.3 4.7 -2.1 0.8 -0.8 3.8 -1.7 6.7 -2 8.7 -1 10.6 -2.2 12.3 -8 2 -7 1.9 -8.2 -1 -14 -1.4 -2.7 -3 -6.4 -3.6 -8.1 -1 -3.3 -1.1 -3.3 -7.5 -3.3 -6.4 0 -6.4 0 -6.4 -5.5 0 -7.8 -1.7 -11 -9.6 -18.5 -6.9 -6.5 -6.9 -6.5 -7.2 -3.5 -0.2 1.7 -1.3 4 -2.4 5.2 -1.8 1.9 -2.1 3.4 -1.9 10.4 0.2 8.2 0.2 8.2 -6.1 7.5 -3.5 -0.4 -6.6 -1 -6.9 -1.4 -0.4 -0.4 -0.9 -4.8 -1.2 -9.8 -0.7 -9.8 -0.4 -10.7 5.6 -17.1 3.8 -4.1 8.7 -4.5 11.1 -1.1 1.4 1.9 1.6 2 1.6 0.5 0 -3.3 -3.3 -8.2 -10.9 -16.3 -10.8 -11.4 -10.7 -11.3 -8.6 -22.8 1.7 -9.6 1.7 -9.6 9.1 -9.6 7.4 0 7.4 0 7.4 4.8 -0.1 2.6 -0.7 6.4 -1.4 8.5 -1.4 3.7 -1.3 3.8 3 9.7 4.4 6 7 8.3 3.8 3.4 -1.5 -2.2 -1.6 -5.3 -1.1 -29.6 0.3 -14.9 0.9 -27.4 1.4 -27.8 1.3 -1.2 27.4 0.1 27.7 1.4 3.9 15.2 4.5 19.9 2.6 21.1 -0.5 0.3 -4.1 0.9 -8 1.2 -7 0.6 -7 0.6 -7 -2.9 0 -2 -0.3 -5 -0.6 -6.8 -1.1 -5.2 -2.4 -1.3 -2.4 7.3 0 8.2 0.4 8.7 5.2 6.8 1.3 -0.6 4.8 -1.7 7.9 -2.5 4.2 -1.2 5.8 -2.2 6.7 -4.1 1.5 -3.2 1.5 -10 0.2 -15.7 -0.5 -2.4 -1.2 -5.4 -1.4 -6.8 -0.5 -2.5 -0.5 -2.5 -17.4 -2.5 -17 0 -17 0 -17.6 6.5 -0.3 3.6 -0.6 10 -0.6 14.3 0 7.7 0 7.7 -9.8 7.7 -9.9 0 -9.9 0 -11 9.3 -1.4 11.2 -3.5 18.5 -6.3 22.2 -4 5 -11.9 10.5 -15.1 10.5 -3.1 0 -3.1 0 -2.5 -10.7 0.6 -11.5 2.5 -19.4 7.9 -31.8 4.5 -10.3 12.3 -22.2 18.4 -28.4 3 -3 5.4 -5.7 5.4 -6.1 0 -0.3 3.1 -3.2 7 -6.3 17.9 -14.7 37.2 -22.7 59 -24.2 10 -0.8 10 -0.8 10 2.1 0 2 -2 5.6 -6.6 11.7 -7.3 9.7 -8.1 10 -16.8 7.1 -2.6 -0.9 -5 -1.3 -5.4 -0.9 -0.4 0.3 2.7 3.9 6.8 7.8 12.2 11.7 19 20.1 19 23.4 0 4.2 -2.5 7.1 -25.5 30.4 -20.7 20.9 -23.2 22.8 -26.3 19.7 -2 -2 -1.5 0.8 1.2 6 1.4 2.8 9.2 11.7 18.8 21.7 25 26.1 32.8 35.5 32.8 40 0 3.4 -13.9 21.4 -20.5 26.5 -4.4 3.5 -6.3 6.8 -5 9 0.4 0.7 1.9 0 4.1 -2 4.3 -3.8 8.5 -4 10.4 -0.6 0.7 1.3 3.7 4.5 6.7 7.1 5.2 4.6 5.4 4.8 5.1 9.4 -0.3 4.6 -0.3 4.6 -7.3 4.8 -4.8 0.2 -9.9 -0.5 -16.3 -2.2z"/>
  <path d="M370 481 c0 -3.5 0.8 -5.4 5 -11 2.8 -3.7 5 -7.2 5 -7.7 0 -0.5 -1.3 -0.8 -3 -0.5 -2.4 0.3 -3 0.9 -3 3 0 3.7 -4.5 9.2 -7.6 9.2 -2.6 0 -5.8 -4.2 -6.9 -9 -0.4 -1.7 -1.6 -3 -3.5 -3.7 -4.3 -1.6 -4.2 -6.5 0.3 -11.9 1.8 -2.1 4.3 -5.4 5.6 -7.1 1.6 -2.5 3 -3.3 5.1 -3.3 2.5 0 3.8 1.2 9 8.2 3.3 4.5 6 9.2 6 10.5 0 1.8 0.6 2.3 2.6 2.3 1.5 0 4.1 1.3 6.1 3 1.8 1.7 3.8 3 4.3 3 1.7 0 1.1 -1.9 -1 -3 -1.1 -0.6 -4.5 -4.3 -7.7 -8.3 -3.1 -3.9 -8.3 -9.8 -11.5 -12.9 -3.2 -3.2 -5.8 -6.6 -5.8 -7.5 0 -3 4.1 -9.7 11 -18.2 7.1 -8.8 9.2 -9.7 13.7 -6.1 1.4 1.1 3.2 2 3.9 2 2.4 0 1.5 4.8 -1.7 9.3 -2.8 3.8 -3 4.8 -2.7 10.2 0.3 4.8 1.1 7.1 4.1 11.8 3.6 5.5 3.9 5.7 8.1 5.7 2.4 0 4.8 0.6 5.5 1.3 0.6 0.8 4.3 2 8.2 2.7 8.4 1.6 11.9 4 11.9 8.1 0 3.3 -2.3 5 -17.5 13.1 -9.7 5.1 -24.5 9.3 -36.7 10.5 -6.8 0.6 -6.8 0.6 -6.8 -3.7z"/>
  <path d="M305.9 425.3 c-0.5 -27.5 -0.2 -32.3 2.1 -32.3 3.1 0 6.9 2.1 8.7 4.9 1.4 2.1 1.8 5.2 2.1 16.1 0.3 16.2 0.6 18 3.1 18 1.1 0 2.1 0.5 2.3 1.2 0.2 0.6 2.6 1.2 5.4 1.2 4.9 0.1 4.9 0.1 5.2 4.7 0.4 5.8 0.1 5.9 -16.4 5.9 -12.2 0 -12.2 0 -12.5 -19.7z"/>
  <path d="M451 432.5 c-0.7 -0.8 -2 -1.5 -2.9 -1.5 -2 0 -4.1 -6.2 -4.1 -12 0 -3.8 0.1 -4 3.3 -4 1.7 0 3.8 -0.4 4.5 -0.8 2 -1.3 3 -6.5 3.8 -18.1 0.7 -10.8 0.7 -10.8 8.2 -17.4 5.7 -5.1 8.2 -6.7 10.5 -6.7 3 0 3 0 2.4 10.3 -0.8 15.8 -7.1 34.7 -15.8 47.4 -2.3 3.4 -3.6 4.3 -5.8 4.3 -1.6 0 -3.4 -0.7 -4.1 -1.5z"/>
  <path d="M267.7 419.3 c-1.9 -4.3 -4.5 -10.9 -5.6 -14.8 -2.4 -7.7 -4.8 -26.1 -3.8 -28.8 1 -2.8 6.9 -2.2 9.8 0.9 1.3 1.4 4.3 3.9 6.5 5.5 3.4 2.3 4.3 3.6 4.8 7.1 0.4 2.3 1.2 4.8 1.7 5.5 0.6 0.6 1.4 5 1.8 9.6 0.8 9 1.4 10.7 3.7 10.7 0.8 0 1.4 1 1.4 2.5 0 1.4 -0.5 2.5 -1.1 2.5 -0.6 0 -3.3 1.6 -5.9 3.5 -7.5 5.5 -9.1 5 -13.3 -4.2z"/>
  <path d="M379.8 401.1 c-1.4 -3.3 -10.6 -14.1 -15.3 -18.1 -7.1 -6 -18.9 -17.9 -22.7 -22.7 -2.2 -2.9 -4.7 -5.3 -5.4 -5.3 -0.8 0 -1.4 -1 -1.4 -2.2 0 -1.6 4.7 -7.2 14.6 -17.6 17.1 -17.9 17.3 -17.9 24.1 -9.2 6.8 8.8 11.3 15.7 11.3 17.5 0 1 -2.5 4.4 -5.5 7.7 -3 3.2 -5.5 6.3 -5.5 6.9 0 1.6 -6.4 1 -9.7 -1.1 -2.3 -1.4 -3.5 -3.1 -4.3 -6.2 -1.9 -7.3 -1.7 -7.2 -5 -4.8 -1.6 1.1 -2.7 2.6 -2.4 3.3 0.2 0.7 4.3 4.6 9.1 8.7 11 9.6 15.9 14.4 20.7 20.4 4.3 5.3 9 8.6 12.4 8.6 3.8 0 2.6 3.7 -3.4 10.6 -6.5 7.4 -9.6 8.3 -11.6 3.5z"/>
  <path d="M491 385.5 c-3.5 -3.6 -7 -6.5 -7.8 -6.5 -1 0 -1.3 -2.5 -1.2 -10.7 0.1 -6 -0.4 -12.4 -0.9 -14.3 -0.6 -1.9 -1.1 -4.9 -1.1 -6.7 0 -1.7 -0.4 -3.4 -0.9 -3.7 -1.2 -0.8 -3.5 -13.2 -2.7 -15.1 0.3 -0.9 0 -1.5 -0.9 -1.5 -0.7 0 -3.9 -4.3 -7.1 -9.6 -3.1 -5.3 -7.7 -12 -10.1 -14.9 -4.6 -5.7 -5.6 -9.5 -2.5 -9.5 1 0 3.3 -1.3 5.2 -3 3.4 -2.8 3.8 -2.9 14.3 -3 9.6 0 10.7 -0.2 10.7 -1.8 0 -1.6 1 -1.8 12.5 -1.4 19.8 0.7 25.4 -1 46.5 -13.8 21.7 -13.1 41.8 -24.9 46 -27 2.5 -1.2 7 -3.7 10 -5.5 3 -1.8 14.5 -8.4 25.5 -14.6 20.4 -11.5 32.6 -18.9 35.8 -21.7 1.5 -1.3 1.5 -1.7 0.2 -3.1 -0.8 -0.9 -2.1 -3.3 -3 -5.4 -1.3 -3.1 -2 -3.7 -4.4 -3.7 -7.3 0 -12.1 -5.1 -12.1 -12.8 0 -3.6 0.6 -4.9 3.9 -8.5 3.8 -4 4.2 -4.2 10 -4.2 5.5 0 6.4 0.3 9.2 3.1 4.4 4.4 5.1 10.9 1.7 14.9 -2.5 2.9 -2.5 2.9 0.8 7.3 1.9 2.4 3.4 5 3.4 5.8 0 1.1 1.2 0.6 4.4 -1.6 4.5 -3 4.5 -3 6 -0.8 2.2 3.1 2 8.4 -0.4 11.8 -1.1 1.5 -2.4 3.9 -3 5.4 -0.6 1.8 -1.7 2.6 -3.4 2.6 -2.4 0 -3.6 1.6 -3.6 5.1 0 1.2 -1 2.3 -2.7 3 -3 1.1 -24.2 12.4 -41.3 22 -10.5 6 -10.5 6 -10.4 10.2 0.1 4.1 0.2 4.2 3.8 4.5 2.3 0.2 3.6 0.8 3.6 1.8 0 0.8 0.2 1.4 0.4 1.4 1.9 0 37.5 -21.1 58.3 -34.6 2.9 -1.9 6.3 -3.4 7.6 -3.4 3.7 0 6.7 3.9 6.7 8.7 0 4.7 0.9 4 -27.5 20.8 -7.1 4.3 -15.2 9.1 -18 10.8 -2.7 1.6 -11.5 6.8 -19.5 11.4 -8 4.5 -18.3 10.6 -23 13.4 -4.7 2.8 -21.5 12.8 -37.5 22.1 -51.3 30 -47.5 27.5 -46.4 30.9 0.5 1.6 1.3 4.3 1.9 6.1 0.5 1.7 1.5 3.5 2.2 4 0.9 0.5 -0.7 2.5 -5.3 6.7 -3.7 3.3 -8.7 9.1 -11.1 12.8 -8.7 13 -12.8 19.8 -12.8 21 0 3 -4 0.9 -10 -5.2z"/>
  <path d="M416.4 366.8 c-3.2 -3.5 -13.8 -14.4 -23.5 -24.3 -9.7 -9.9 -18.8 -19.9 -20.3 -22.2 -4.7 -7.6 -4.2 -8.6 10.9 -24.2 15.2 -15.6 16.5 -20.2 2.5 -8.8 -0.8 0.6 -5.1 5.4 -9.4 10.5 -7.1 8.4 -8.2 9.3 -11 9 -2.5 -0.2 -4 -1.7 -8.8 -8.3 -3.1 -4.4 -5.8 -9 -5.8 -10.3 0 -2.8 12.6 -15.1 15.6 -15.2 1.4 0 2.8 1.3 4.3 4 2.3 4.1 5.6 7 7.9 7 0.7 0 -1.4 -3.3 -4.7 -7.3 -5.3 -6.4 -6.1 -7.9 -6.1 -11.5 0 -4.2 0 -4.2 5.9 -4.2 7.3 0 23.1 3.9 34 8.5 7.9 3.2 21.7 11.5 32.9 19.7 4.2 3.2 5.2 4.4 5.2 6.8 0 3 0 3 -24.1 3 -24 0 -24 0 -26.6 5.7 -3.6 7.9 -4.1 13.9 -1.4 19.1 1.1 2.2 2.9 4.3 3.8 4.5 1 0.3 6.8 0.8 13 1.2 11.2 0.7 11.2 0.7 11.5 -12.7 0.3 -13.3 0.3 -13.3 3.9 -13.6 3.7 -0.3 3.7 -0.3 4.4 8.8 0.5 6.4 1.1 9.3 2.2 9.9 1.3 0.7 1.4 2.9 0.7 15.9 -0.5 8.4 -0.8 15.2 -0.7 15.2 0.1 0 1.1 -1.5 2.2 -3.4 1.5 -2.3 2.1 -5 2.1 -8.9 0 -8.1 2.3 -9.9 9.9 -7.7 4.5 1.3 5.1 2.3 5.1 9.1 0 4.6 -0.6 6.4 -3.2 10.3 -2.9 4.5 -11.9 12.6 -13.9 12.6 -0.5 0 -2 1.8 -3.4 4 -2.1 3.4 -3.1 4 -5.9 4 -2.8 0 -4.3 -1 -9.2 -6.2z m12.9 -10.2 c1.6 -2.4 1.6 -2.4 -2.8 -2.8 -4.4 -0.3 -4.4 -0.3 -1.8 2.4 1.5 1.6 2.8 2.8 2.9 2.8 0.1 0 0.9 -1.1 1.7 -2.4z"/>
  <path d="M464.9 361.3 c-3.9 -3.7 -7.7 -7.9 -8.5 -9.4 -0.8 -1.6 -1.4 -5.9 -1.5 -10.1 -0.2 -12.1 -0.2 -12.2 -8.9 -12.8 -7.5 -0.5 -7.5 -0.5 -7.4 -10.2 0.2 -14.4 2.2 -17.8 10.1 -17.8 3.1 0 4.6 0.7 7 3.3 4.2 4.3 12.7 18.6 15.4 25.6 3.1 8.3 5.9 22.6 5.9 30.9 0 7 -0.1 7.2 -2.5 7.2 -1.7 0 -4.7 -2.1 -9.6 -6.7z"/>
  <path d="M401.2 323.9 c-5.7 -1.7 -6.8 -10.1 -1.9 -15.2 1.2 -1.3 2.7 -3.2 3.3 -4.3 1 -1.6 2.2 -1.9 8.3 -1.8 3.9 0 7.4 0.3 7.7 0.7 0.3 0.3 0.3 5.3 -0.1 11.1 -0.7 10.6 -0.7 10.6 -7.4 10.5 -3.6 0 -8.1 -0.5 -9.9 -1z"/>
  <path d="M702.4 294.9 c-7.2 -2.1 -10.2 -9.8 -6.5 -17 2.2 -4.1 2.2 -4.1 -2.6 -9.3 -2.6 -2.8 -5.6 -5.1 -6.5 -5 -2.7 0.1 -2.5 -8.9 0.2 -11.6 2.6 -2.6 9.6 -2.7 12.8 -0.1 2.8 2.4 2.8 2.7 -0.2 4.3 -2.4 1.3 -2.4 1.3 1.3 7.6 3.2 5.5 3.9 6.2 6.6 6.1 5.7 -0.2 6.7 0.1 9.6 3 2.5 2.5 2.9 3.7 2.9 8.4 0 11 -7.3 16.6 -17.6 13.6z"/>
  <path d="M740.4 272 c-4.8 -1.5 -7.6 -5.2 -8.2 -10.8 -0.2 -2.8 0.1 -5.9 0.8 -7.1 1 -1.9 0.7 -2.7 -2.3 -6 -1.9 -2.1 -3.9 -4.6 -4.4 -5.6 -0.8 -1.4 -1.4 -1.5 -3 -0.7 -1.8 1 -2.3 0.6 -4.7 -3.7 -3.8 -7 -3.4 -12.1 0.9 -12.1 3.2 0 3.9 -1.4 3.6 -7.2 -0.2 -4.8 -0.2 -4.8 4.4 -6.8 4.8 -2.1 10.5 -2.7 10.5 -1.1 0 1.6 3.3 2.2 6.7 1 2.2 -0.7 3.3 -1.7 3.3 -3 0 -1 0.6 -1.9 1.3 -1.9 2 0 5.7 -4.3 5.7 -6.7 0 -1.2 0.7 -2.3 1.5 -2.7 0.8 -0.3 1.5 -1.5 1.5 -2.6 0 -1.9 0.6 -2 8.9 -2 7.8 0 8.9 0.2 9.3 1.8 0.7 2.6 9.2 5 11.3 3.2 0.8 -0.7 1.5 -1.8 1.5 -2.4 0 -2.4 7.6 -7 10.4 -6.4 1.5 0.2 1.1 1.3 -2.2 6.4 -4.6 7 -10 11.1 -18.9 14.4 -3.5 1.2 -6.3 2.6 -6.3 3 0 0.4 0.8 1.4 1.9 2.4 1 0.9 2.6 3.4 3.6 5.6 1.7 3.9 1.8 3.9 6.4 3.3 4.3 -0.5 5 -0.3 7.9 2.7 2.7 2.7 3.2 3.9 3.2 7.9 0 5.8 -3 10.7 -8.1 13.5 -9.7 5.3 -20.9 -5.2 -16.6 -15.6 1.6 -3.8 1.6 -3.8 -4 -10.1 -3.1 -3.6 -3.1 -3.6 -13.3 1.9 -10.3 5.5 -19 11.2 -19 12.4 0 0.4 0.9 1.5 2.1 2.6 1.2 1 2.7 3.1 3.5 4.6 1.2 2.3 1.9 2.6 4.2 2.2 4.1 -0.8 9.8 1.9 12.2 5.8 6.4 10.5 -3.7 23.4 -15.6 19.8z"/>
  <path d="M696 213.3 c0 -2.2 2.3 -8.6 3.4 -9.4 1.6 -1.2 -0.6 -5 -3.8 -6.3 -2.7 -1.1 -3.4 -2.1 -3.9 -5.2 -0.3 -2.2 -0.9 -4.8 -1.2 -5.9 -0.4 -1.6 0.8 -2.9 6.9 -6.8 7.3 -4.8 7.5 -4.9 5.7 -6.8 -1 -1.1 -2.3 -3.7 -3 -5.9 -1.2 -4 -1.2 -4 -6.7 -4 -4.6 0 -5.9 -0.4 -7.8 -2.5 -5.9 -6.3 -2.8 -16.7 6.1 -20.7 8.8 -3.9 18 0.6 19 9.2 0.4 3.9 0.1 4.8 -2.1 6.9 -1.4 1.4 -2.6 2.8 -2.6 3.2 0 0.4 1.5 2.5 3.4 4.8 1.9 2.2 3.6 4.6 3.8 5.3 0.7 2.1 16.2 -8.8 25.1 -17.6 12.3 -12.1 20.9 -15.4 33.8 -12.7 16.5 3.4 27.3 14.5 30.1 31 1.8 10.8 -0.4 12.6 -12 9.8 -5.2 -1.2 -5.4 -1.3 -7.7 -7.1 -3.9 -9.7 -13.4 -17.6 -19.4 -16.1 -4.7 1.1 -10.2 5.7 -12.7 10.6 -2 4.1 -2.3 5.7 -1.8 10.8 0.8 6.9 0.2 7.6 -8.9 12.6 -6.7 3.7 -11.8 2.9 -15.2 -2.6 -1.4 -2.1 -3.6 -4.6 -5 -5.5 -1.4 -0.9 -2.5 -2.5 -2.5 -3.5 0 -2.4 -1.2 -2.4 -3.4 0 -1.3 1.4 -1.5 2.4 -0.8 3.8 4.1 7.7 6.1 17.8 4.3 21.2 -1.9 3.5 -14.1 11.1 -17.8 11.1 -2.4 0 -3.3 -0.5 -3.3 -1.7z"/>
  <path d="M758.2 190.9 c-3.2 -1 -3.3 -1.1 -3 -5.7 0.3 -4.6 0.4 -4.7 3.8 -5 5.5 -0.4 6.2 -0.9 5 -3.1 -0.8 -1.7 -1.5 -1.8 -4.2 -1 -1.8 0.5 -4.3 0.9 -5.5 0.9 -2.1 0 -2.3 -0.5 -2.3 -5 0 -4.4 0.4 -5.4 4 -9.1 3.9 -4.1 4 -4.1 9.5 -3.7 6.2 0.5 9.7 2.6 13.3 7.8 4.1 6 2.5 16.6 -3.2 21.9 -2 1.9 -3.9 2.5 -8.4 2.7 -3.1 0.2 -7.2 -0.1 -9 -0.7z"/>
 </g>
 <g fill="#1f3039">
  <path d="M304.9 742.8 c-0.6 -1.2 -1.4 -6.1 -1.7 -10.8 -0.4 -7.3 -0.2 -8.9 1.3 -10.3 1.1 -1.2 2.5 -1.5 3.9 -1.1 4.4 1.4 4.8 2.3 4.4 11.5 -0.3 7.8 -0.5 8.9 -2.8 10.8 -3.2 2.6 -3.7 2.6 -5.1 -0.1z"/>
  <path d="M538 741.4 c-0.6 -1.4 -0.9 -11.8 -0.8 -23.2 0 -11.4 0.3 -19.2 0.5 -17.5 0.5 3.6 3.5 6.3 7 6.3 2.3 0 2.3 0 2.3 16.6 0 9.5 -0.4 17.4 -1 18.5 -1.6 3 -6.8 2.6 -8 -0.7z"/>
  <path d="M820.3 742.8 c-2 -2.7 -2.2 -5.8 -2.4 -47.8 -0.1 -37.5 0 -43.4 1.4 -44.7 0.9 -0.9 2.3 -1.3 3.6 -0.8 4.6 1.4 4.8 3.3 5 48.6 0.2 38.1 0 42.8 -1.4 44.3 -2 1.9 -4.9 2.1 -6.2 0.4z"/>
  <path d="M576.7 741.2 c-1.5 -1.7 -1.7 -7.1 -1.7 -57 0 -55.1 0 -55.1 2.3 -57.7 2.2 -2.7 2.3 -2.7 4.6 -0.8 2.4 1.9 2.4 1.9 2.2 57.8 -0.1 34 -0.6 56.6 -1.2 57.7 -1.2 2.3 -4.1 2.3 -6.2 0z"/>
  <path d="M559.4 741 c-1.3 -0.5 -2.4 -2.1 -2.8 -4 -0.3 -1.8 -0.6 -24.3 -0.6 -50 0 -46.7 0 -46.7 2.5 -49.4 2.9 -3.1 3.6 -3.2 5.9 -0.8 1.5 1.7 1.6 6.4 1.5 50.7 -0.1 54.4 -0.2 55.8 -6.5 53.5z"/>
  <path d="M246.9 739.3 c-1 -1.2 -1.5 -6.1 -1.7 -19.1 -0.2 -9.7 -0.1 -18.6 0.3 -19.9 0.8 -3.3 5.9 -3.2 8.1 0.2 1.4 2.1 1.5 4.8 1 19.6 -0.3 9.4 -1.1 17.9 -1.6 19 -1.3 2.3 -4.3 2.5 -6.1 0.2z"/>
  <path d="M781 717.1 c-0.6 -1.3 -1 -18.8 -1 -50 0 -48.1 0 -48.1 2.5 -49.7 3.8 -2.5 7.5 -0.6 7.6 3.8 0.2 17 -0.3 95.2 -0.8 96.4 -0.8 2.2 -7 1.8 -8.3 -0.5z"/>
  <path d="M226.8 716.3 c-0.3 -0.5 -0.5 -6.8 -0.7 -14.1 -0.3 -13.9 0.3 -16.2 4 -16.2 1.1 0 2.8 0.9 3.9 2 1.7 1.7 2 3.3 2 12.4 0 5.7 -0.3 11.8 -0.6 13.5 -0.6 2.8 -1 3.1 -4.5 3.1 -2.1 0 -3.9 -0.3 -4.1 -0.7z"/>
  <path d="M428.1 462.4 c2.1 -2.6 -2.4 -5.7 -10.6 -7.3 -6.5 -1.3 -11.4 -3.6 -11.5 -5.3 0 -0.5 5.2 -0.8 11.5 -0.8 6.3 0 11.5 -0.4 11.5 -0.9 0 -0.5 -0.7 -2.5 -1.5 -4.4 -0.8 -2 -1.5 -4.8 -1.5 -6.3 0 -2.6 0.2 -2.6 4.3 -2.1 2.3 0.4 5.7 0.9 7.5 1.3 2.7 0.6 3.1 0.4 2.6 -1 -0.5 -1.3 -2.1 -1.6 -8.4 -1.6 -4.4 0 -8.2 -0.4 -8.5 -1 -0.3 -0.5 -0.8 -4.3 -1.1 -8.2 -0.9 -12.6 -0.1 -11.6 -10.1 -11.1 -4.9 0.2 -10.1 1 -11.7 1.6 -2.3 0.8 -3.1 0.8 -3.4 -0.1 -0.2 -0.7 -0.9 -1.2 -1.6 -1.2 -0.8 0 -2.6 -1 -4.1 -2.1 -2.2 -1.8 -2.9 -2 -3.6 -0.8 -0.6 1 -0.9 0.7 -0.9 -1.2 0 -5.1 26.7 -30.9 32 -30.9 3.9 0 5.3 2.2 4.8 7.5 -0.3 4.4 -0.2 4.5 2.5 4.5 6 0 6.7 1.1 6.7 11.5 0 11.3 1 14.5 4.4 14.5 1.4 0 2.8 -0.4 3.1 -1 0.3 -0.5 2.2 -1 4.1 -1 1.9 0 3.4 0.5 3.4 1 0 0.6 -0.4 1 -1 1 -1.4 0 -1.3 3.2 0.2 8 0.8 2.5 1.9 4 2.9 4 0.9 0 2.2 0.7 2.9 1.5 0.7 0.9 1.9 1.4 2.7 1.1 2.6 -1 1.3 3.4 -3 10.1 -5.6 8.7 -19.9 22.3 -23.4 22.3 -2.2 0 -2.4 -0.2 -1.2 -1.6z"/>
  <path d="M296.7 458.9 c-6.1 -5.3 -13.5 -14.4 -14.3 -17.6 -0.4 -1.4 -2.9 -4.7 -5.5 -7.2 -4 -3.9 -4.9 -5.4 -4.9 -8.2 0 -2.4 0.3 -3 0.9 -2 0.7 1.1 1.8 0.7 5.8 -2.1 2.6 -1.9 5.5 -3.8 6.3 -4.1 1.2 -0.4 1.1 -0.6 -0.3 -0.6 -1 -0.1 -1.5 -0.5 -1.2 -1.1 0.5 -0.8 17.5 -1.6 17.5 -0.7 0 3 2.1 32.2 2.3 32.3 0.2 0.2 5.1 0.6 11 1 5.9 0.4 10.7 0.9 10.7 1.1 0 1.6 -7.3 5.9 -9.3 5.4 -1 -0.2 -7.6 2.1 -10.2 3.6 -1.6 0.9 -1.7 1.3 -0.6 2.7 1.2 1.4 1 1.6 -1 1.6 -1.4 0 -4.5 -1.8 -7.2 -4.1z"/>
  <path d="M475.8 438.6 c-1.1 -1 -1.4 -2.8 -1.1 -5.9 0.3 -2.6 0 -4.8 -0.6 -5.1 -0.6 -0.4 -1.1 -1.6 -1.1 -2.7 0 -2.1 -1.5 -2.6 -2.4 -0.6 -0.3 0.6 -0.4 -0.4 -0.2 -2.3 0.3 -1.9 2.5 -9.3 5 -16.5 2.5 -7.4 5 -16.8 5.7 -21.7 0.6 -4.9 1.6 -8.8 2 -8.8 0.5 0 0.9 0.4 0.9 0.9 0 0.5 0.6 1.1 1.4 1.3 0.8 0.2 4.6 3.4 8.5 7.1 6.7 6.5 7 7 5.6 9 -0.7 1.2 -3.4 7.2 -5.8 13.2 -4.3 10.8 -9.1 20.8 -14 29.3 -2.2 3.8 -2.6 4.2 -3.9 2.8z"/>
  <path d="M332.6 437.5 c-0.7 -1.8 -2.9 -1.9 -5.7 -0.2 -1.7 1 -2.3 0.9 -3.9 -1 -1 -1.3 -2.5 -2.3 -3.3 -2.3 -2.7 0 -2.9 -3 -0.3 -4 1.6 -0.6 2.9 -2.3 3.8 -5.2 1.5 -4.3 1.5 -4.3 6.4 -4.3 4.9 0 4.9 0 5.2 9.3 0.3 8.4 -0.6 11.6 -2.2 7.7z"/>
  <path d="M361.8 421.8 c-0.8 -1.8 -4.5 -7.1 -8.2 -11.6 -3.6 -4.6 -6.6 -9.4 -6.6 -10.5 0.1 -2.9 12.3 -15.7 15 -15.7 1.8 0 4.9 3.5 10.4 12 1.8 2.9 2.8 3.5 5.7 3.4 1.8 0 3.8 0.6 4.2 1.3 0.5 0.7 1.2 1.1 1.8 0.8 0.5 -0.4 0.9 0.2 0.9 1.2 0 1 -3.9 6.4 -8.6 12.1 -9.6 11.4 -11.9 12.6 -14.6 7z"/>
  <path d="M437 406.2 c0 -2 0.4 -5.1 0.9 -6.9 1 -3.5 0.4 -4.7 -6.2 -12.3 -4.1 -4.7 -8.7 -12.9 -8.7 -15.4 0 -0.9 0.7 -1.2 2 -0.9 1.4 0.4 2.4 -0.3 3.7 -2.6 2.1 -3.6 3.3 -4 3.3 -1 0 1.4 3.3 5.4 9.5 11.3 9.5 9.2 9.5 9.2 8.9 19.1 -0.3 5.5 -0.7 10.6 -1 11.3 -0.2 0.8 -2.4 1.2 -6.4 1.2 -6 0 -6 0 -6 -3.8z"/>
  <path d="M332.1 386.3 c-6.4 -5.4 -14.1 -15.1 -14.1 -17.6 0 -1.4 1.9 -4.2 4.8 -7 6.9 -6.8 8.8 -6.5 18.5 2.4 9.3 8.5 9.6 10.3 4 19.8 -4.4 7.5 -6.8 7.9 -13.2 2.4z"/>
  <path d="M394 387.6 c0 -0.7 -1.8 -3.4 -4.1 -6 -2.3 -2.6 -4.9 -6.8 -5.8 -9.4 -1.2 -3.4 -2.3 -4.8 -3.9 -5 -3.8 -0.6 -2.8 -4.8 2.9 -11.3 7.4 -8.6 8.8 -8.4 21.2 3.2 12.6 11.8 12.6 12.3 2 22.5 -7.4 7 -12.3 9.4 -12.3 6z"/>
  <path d="M527.8 351.7 c-0.7 -0.8 -2 -3.7 -2.8 -6.5 -0.7 -2.9 -1.7 -5.2 -2.2 -5.2 -0.4 0 -0.8 -0.6 -0.8 -1.3 0 -1.2 2.2 -2.6 33 -20.7 9.6 -5.7 23.4 -13.8 30.5 -18 7.2 -4.2 22.2 -13 33.5 -19.5 34.4 -19.8 50.2 -29.3 56.5 -34 6.4 -4.8 9.1 -5.5 11 -2.8 1.8 2.5 3.4 0.7 2.8 -3.1 -0.5 -3.1 -0.3 -3.4 2.7 -3.9 1.7 -0.4 2.9 -1.1 2.5 -1.6 -0.3 -0.5 -0.1 -1.2 0.4 -1.5 1.9 -1.2 0.8 -5.7 -2 -8.1 -1.6 -1.3 -2.9 -2.7 -2.9 -3.2 0.1 -1.4 21.1 -14.3 23.4 -14.3 2.4 0 5.6 5.2 5.6 9.3 0.1 1.2 0.7 3.3 1.5 4.7 1.8 3.2 1.9 6 0.1 6 -2.7 0 -2.6 3.3 0.3 8.5 3.4 6 4.8 4.2 -11.1 13.6 -9.7 5.8 -9.7 5.8 -12.2 3.8 -3.1 -2.4 -6.1 -2.4 -8.6 0.1 -2.1 2.1 -2.8 8 -1 8 0.6 0 -2.7 2 -7.2 4.4 -4.6 2.4 -14.6 7.7 -22.3 11.8 -13.2 7 -19 10.3 -44.5 25.4 -5.8 3.4 -17.9 10.4 -27 15.7 -32.8 18.8 -52.6 30.3 -55.1 32 -2.3 1.5 -2.9 1.6 -4.1 0.4z"/>
  <path d="M446.5 289.9 c-4.4 -3.9 -11.1 -9.2 -15 -11.7 -8.1 -5.4 -24.9 -14.2 -27 -14.2 -0.8 0 -1.5 -0.7 -1.5 -1.5 0 -0.8 0.7 -1.5 1.6 -1.5 0.8 0 1.3 -0.4 1 -0.9 -0.3 -0.5 0.1 -1.2 1 -1.5 1.5 -0.6 1.5 -0.8 0 -2.4 -2.1 -2.4 -2 -3.4 0.2 -6 1.8 -2 1.8 -2 9.2 1.2 4.1 1.8 15.3 7.6 24.8 13 9.5 5.3 20.3 10.9 24 12.3 8 3 19.8 6.3 23.1 6.3 1.8 0 2.1 0.3 1.2 1.3 -0.6 0.8 -0.8 1.7 -0.5 2 0.3 0.3 -0.1 1.5 -0.9 2.7 -0.9 1.3 -1.7 1.7 -2.2 1.1 -0.4 -0.7 -4.3 -1.1 -9.8 -1.1 -8.7 0.1 -9.4 0.2 -12.7 3 -1.9 1.7 -4.3 3 -5.3 3 -1 0 -1.5 0.5 -1.2 1 1.8 3 -3 0 -10 -6.1z"/>
  <path d="M622 260 c1.1 -0.7 0.6 -1 -2.2 -1 -4.1 0 -7 -3.2 -4.9 -5.3 1.9 -1.9 1.2 -2.8 -1 -1.6 -2.1 1.1 -2.1 1 -0.7 -1 1.6 -2.2 15.5 -10.8 26.3 -16.3 3.3 -1.7 8.5 -4.7 11.5 -6.8 3 -2 8.5 -5.4 12.3 -7.4 5.4 -3 6.7 -4.2 6.7 -6.2 0 -2 0.5 -2.4 3 -2.4 2.6 0 3 0.4 3 2.8 0 1.5 0.7 4 1.5 5.6 1.9 3.7 1.9 8.2 0 9 -0.9 0.3 -7.3 4.3 -14.3 8.9 -20.4 13.5 -36.6 22.7 -39.8 22.7 -2.3 0 -2.6 -0.2 -1.4 -1z"/>
  <path d="M779.5 200.1 c-2.9 -1 -5.1 -2.5 -5.3 -3.4 -0.2 -1 -0.8 -1.7 -1.3 -1.7 -2 0 -0.7 -1.8 3.5 -4.7 3.3 -2.3 4.7 -4.3 6 -7.9 0.9 -2.6 1.6 -5.6 1.6 -6.6 0 -2.1 1.5 -2.4 2.3 -0.5 0.3 0.8 3.1 1.9 6.2 2.5 6.5 1.3 9.1 0.3 9.8 -3.8 0.3 -1.4 0.3 0.4 0.1 4 -0.4 6.9 -2 14.1 -3.2 13.8 -2.2 -0.4 -8.2 3.9 -8.2 5.9 0 1.3 -3.9 4.3 -5.5 4.2 -0.5 0 -3.2 -0.8 -6 -1.8z"/>
 </g>
 <g fill="#143e43">
  <path d="M595.6 743.1 c-1.5 -1.6 -1.7 -4.1 -1.7 -16.2 0 -7.9 -0.2 -22.8 -0.6 -33.1 -0.4 -12.9 -0.2 -18.8 0.5 -18.8 0.6 0 1.2 -1 1.4 -2.2 0.2 -1.9 0.9 -2.3 3.8 -2.3 3.5 0 3.5 0 3.7 22.5 0.1 12.4 0.3 28.1 0.4 35 0.3 13.2 -0.5 17 -4 17 -1 0 -2.6 -0.9 -3.5 -1.9z"/>
  <path d="M764.2 713.7 c-2.2 -2.3 -2.2 -2.8 -2.2 -36.3 0 -34 0 -34 3.6 -37.2 6.2 -5.5 6.4 -5.1 6.4 11.6 0 8.1 -0.3 25.8 -0.7 39.5 -0.6 24.5 -0.6 24.7 -2.8 24.7 -1.2 0 -3.1 -1 -4.3 -2.3z"/>
  <path d="M707.3 710.8 c-0.7 -0.8 -1.2 -19.9 -1.6 -53.5 -0.5 -52.3 -0.5 -52.3 2.3 -52.3 2.3 0 2.9 0.5 3.4 3.1 0.3 1.7 0.6 4.6 0.6 6.4 0 5.7 1.1 9.5 2.9 9.5 1.5 0 1.6 3.4 1.3 37.2 -0.2 20.5 -0.6 40.2 -1 43.8 -0.7 6.4 -0.8 6.5 -3.8 6.8 -1.7 0.2 -3.5 -0.3 -4.1 -1z"/>
  <path d="M327.5 707.5 c-16.4 -2.4 -32.8 -6.8 -46.4 -12.5 -18.2 -7.5 -45.1 -24 -58.2 -35.7 -7.2 -6.4 -7.6 -7 -7.2 -10.3 0.7 -5.3 2.6 -9 4.8 -9.6 3.1 -0.9 10.9 -4.8 11.6 -5.8 0.4 -0.4 1 -0.3 1.3 0.3 0.8 1.3 15.5 11.2 22.8 15.4 29.3 16.9 69.6 28.7 98.1 28.7 18.8 0 43 -4.9 67.2 -13.5 7.2 -2.5 15.8 -5.3 19.3 -6.2 6 -1.4 6.5 -1.4 10.6 0.5 5.3 2.6 15.6 14.5 15.6 18.3 0 2.4 -26.9 15 -44.5 20.9 -34.6 11.6 -61.9 14.3 -95 9.5z"/>
 </g>
 <g fill="#1a4950">
  <path d="M745 746 c-2.3 -2.3 -2.8 -10.8 -0.8 -12.8 1.7 -1.7 5.4 -1.5 7.2 0.4 2.5 2.5 2.1 9.6 -0.7 12.2 -2.9 2.7 -3.2 2.7 -5.7 0.2z"/>
  <path d="M651.7 743.2 c-1.2 -1.3 -1.7 -3.7 -1.7 -8.5 0 -5.6 0.3 -6.8 2 -7.7 2.2 -1.2 6 -0.4 7.2 1.4 0.4 0.6 0.8 3.6 0.8 6.6 0 8.6 -4.2 12.7 -8.3 8.2z"/>
  <path d="M727.8 743.3 c-0.9 -0.2 -1.9 -1.1 -2.2 -1.8 -0.3 -0.8 -0.8 -22.3 -1.2 -47.9 -0.7 -46.4 -0.7 -46.4 1.5 -48.7 1.1 -1.2 2.6 -3.8 3.3 -5.6 0.7 -1.8 1.9 -3.3 2.8 -3.3 1.4 0 1.5 5.4 1.4 51.8 -0.1 37.8 -0.4 52.4 -1.3 54 -1.2 2.2 -1.4 2.3 -4.3 1.5z"/>
  <path d="M744 722.8 c-1.8 -2 -2 -3.1 -1.5 -8.8 0.3 -3.6 0.7 -30.7 0.9 -60.2 0.3 -55.8 0.3 -56.8 4.4 -56.8 0.8 0 2.3 0.7 3.3 1.6 1.6 1.4 1.7 5.8 1.3 62.7 -0.3 33.7 -0.7 61.8 -0.9 62.5 -0.7 2 -5.3 1.4 -7.5 -1z"/>
  <path d="M687.5 715.6 c-1.4 -2 -1.5 -5.8 -0.9 -28.5 0.7 -24.1 0.9 -26.1 2.5 -26.1 1 0 2.1 0.9 2.4 2 0.3 1.1 1.5 2 2.6 2 1.8 0 1.9 1 1.9 25.9 0 22.7 -0.2 26 -1.6 26.5 -3 1.2 -5.4 0.6 -6.9 -1.8z"/>
  <path d="M593.1 650 c-0.1 -26.2 0.1 -30.9 1.5 -32.8 1.8 -2.7 4.4 -2.8 7.3 -0.4 2.2 1.7 2.2 1.8 1.5 29.4 -0.7 26.6 -0.8 27.7 -2.6 26.7 -2.3 -1.2 -3.8 -0.4 -3.8 2.2 0 1 -0.6 1.9 -1.4 1.9 -0.8 0 -1.7 0.8 -1.9 1.8 -0.3 0.9 -0.5 -12 -0.6 -28.8z"/>
  <path d="M464.3 676.8 c-2.1 -4.5 -10.7 -14 -14.3 -15.7 -3.3 -1.6 -4.2 -1.6 -8.1 -0.4 -5.4 1.6 -9.2 1.8 -6.9 0.3 0.8 -0.5 1.2 -1 0.8 -1 -0.4 0 7.2 -4.1 16.8 -9.1 9.7 -5 22.3 -11.9 28.1 -15.3 9.1 -5.4 10.9 -6.2 14 -5.7 3.3 0.6 3.7 1 5.4 6.1 1 3 1.8 6.2 1.8 7.1 0.1 0.9 1.3 3.8 2.7 6.4 2.2 3.9 2.4 4.9 1.3 5.6 -3.8 2.4 -40 23.9 -40.4 23.9 -0.1 0 -0.6 -1 -1.2 -2.2z"/>
  <path d="M208 645.3 c-8.5 -9.2 -14.6 -17.5 -20.6 -28.1 -4.4 -7.7 -4.4 -7.7 0.8 -9.4 2.9 -1 7.5 -1.8 10.2 -1.8 4.9 0 4.9 0 17.7 12.5 7.1 6.9 14.1 13.2 15.4 14.1 1.4 0.9 2.5 2.1 2.5 2.8 -0.1 1.1 -4.6 3.5 -10.5 5.6 -3.3 1.1 -5.5 4.8 -5.5 9.2 0 4.5 -2.3 3.4 -10 -4.9z"/>
  <path d="M761.8 639.5 c-1.4 -23 -1.1 -30.2 1.2 -32.5 2.6 -2.6 4.2 -2.5 6.6 0.1 1.7 1.9 1.9 3.9 2 22.8 0.1 12.1 -0.2 18.1 -0.6 14.6 -0.4 -3.3 -0.7 -5.5 -0.8 -4.9 -0.1 0.6 -1.8 2.2 -3.7 3.5 -2.6 1.8 -3.5 3.2 -3.7 5.9 -0.2 1.9 -0.6 -2.3 -1 -9.5z"/>
 </g>
 <g fill="#593f29">
  <path d="M280.5 588.3 c-1.6 -0.3 -4 -1.3 -5.3 -2.4 -1.7 -1.3 -4.1 -1.9 -7.8 -1.9 -4.2 0 -5.8 -0.5 -7.1 -2 -1.5 -1.7 -3 -2 -10.1 -2 -8.3 0 -8.5 0 -13.6 -4.1 -9 -7 -28.5 -27.1 -35.1 -35.9 -10.7 -14.5 -21 -34.6 -23.2 -45.2 -0.5 -2.5 -0.3 -2.8 2.2 -2.8 3.8 0 9.4 -3.6 10.1 -6.6 0.3 -1.3 1 -2.4 1.4 -2.4 0.5 0 2.9 3.9 5.5 8.7 12.2 22.7 31.1 44.4 53 60.9 10.6 8 34.4 20.9 45.8 24.7 2.8 1 2 3.9 -2.3 8 -4.1 3.8 -5.6 4.1 -13.5 3z"/>
  <path d="M848.8 567 c-2.7 -1.7 -20 -26.2 -18.9 -26.9 0.6 -0.4 1.3 -3.4 1.7 -6.6 0.8 -7.2 2.8 -11.5 5.3 -11.5 1.3 0 2.9 2.5 5.8 8.8 5.2 11.3 5.9 13 8.3 23.2 3 13 2.6 15.7 -2.2 13z"/>
 </g>
 <g fill="#1c5f65">
  <path d="M633 722 c-1.3 -0.8 -1.5 -6.6 -1.5 -41.5 -0.1 -36.6 0.1 -40.5 1.5 -40.5 1.2 0 2 1.6 2.8 6.2 0.7 3.8 1.9 6.9 3 7.8 1.8 1.4 1.8 3.3 1.3 35 -0.6 33.5 -0.6 33.5 -3.1 33.8 -1.4 0.1 -3.2 -0.2 -4 -0.8z"/>
  <path d="M845.8 660 c-5.8 -11.6 -16.2 -25.7 -27 -36.6 -9.3 -9.5 -9.4 -9.7 -1.3 -17.3 4.3 -4.1 6.1 -5.1 8.8 -5.1 4.1 0 5.6 1.9 12.5 15.6 8.4 16.7 12.5 32.3 12 44.9 -0.3 8 -0.3 8 -5 -1.5z"/>
  <path d="M330.5 666.9 c-25.6 -3.5 -56.2 -15.7 -82 -32.6 -13.9 -9.1 -30.4 -23 -38.9 -32.7 -5.6 -6.4 -5.7 -6.7 -4.3 -9 1.6 -2.3 1.8 -2.4 17.7 -4.6 5 -0.6 5.8 -0.5 8.5 1.9 5.2 4.5 26.6 18.5 37 24.3 13.9 7.7 26.3 12.3 45.5 17 15 3.7 18 4.1 33.4 4.5 22 0.7 40.8 -1.7 58.9 -7.4 7.8 -2.4 7.8 -2.4 14.5 2.1 10.3 6.8 11.6 8.6 10.8 14.3 -0.3 2.6 -1.2 5.3 -1.9 5.9 -3.4 3.3 -22.9 9.4 -44.3 13.9 -13.6 2.9 -42.6 4.1 -54.9 2.4z"/>
  <path d="M502.2 650.8 c-1.2 -2.4 -2.2 -5 -2.3 -5.8 0 -0.8 -0.8 -4 -1.8 -7 -1.6 -4.8 -2.2 -5.5 -4.7 -5.8 -1.6 -0.2 -3.2 -0.7 -3.6 -1 -0.3 -0.4 6.3 -5.1 14.8 -10.5 15.5 -9.7 15.5 -9.7 19.7 -7.6 2.3 1.2 6.6 4.6 9.5 7.6 2.9 3.1 6.8 6.1 8.8 6.8 3.7 1.2 3.7 1.2 -15.7 14 -10.7 7 -20.1 13 -20.9 13.2 -1 0.2 -2.3 -1.2 -3.8 -3.9z"/>
 </g>
 <g fill="#684c30">
  <path d="M330.8 619 c-23.2 -2.8 -53.1 -14.4 -76.3 -29.9 -12.8 -8.5 -15.4 -10.8 -13.5 -12 0.9 -0.7 1.8 -0.7 2.4 -0.1 1.3 1.3 6.2 1.3 8.6 0 1.1 -0.6 2.1 -0.6 2.4 -0.1 0.3 0.5 1.4 0.7 2.5 0.4 1.1 -0.3 3 0.6 4.7 2.2 2.5 2.3 3.5 2.6 7.4 2.2 3.6 -0.4 5.1 -0.1 7.5 1.7 1.7 1.3 4.9 2.6 7.3 3 3.9 0.6 4.5 0.4 8.2 -3.1 2.2 -2.1 4 -4.3 4 -4.9 0 -0.6 3.5 0.2 8.3 1.8 4.6 1.5 15.2 3.9 23.7 5.4 13.5 2.3 17.5 2.5 31.2 2.2 15.7 -0.5 15.7 -0.5 19 4.1 4.5 6.3 4.6 12.2 0.3 17.4 -1.6 1.9 -3.8 3.8 -4.7 4.2 -1 0.4 -1.8 1.7 -1.8 3 0 1.5 -0.7 2.5 -2.2 2.9 -3.2 0.8 -30.8 0.5 -39 -0.4z"/>
  <path d="M821.5 534 c-8.6 -8.7 -8.6 -8.7 -6.5 -12.3 2.1 -3.6 2.1 -3.6 -0.4 -8.6 -3.2 -6.3 -3.6 -14.7 -0.8 -17.9 1.9 -2.1 1.9 -2.1 7.9 3.6 8.5 8.1 19 24.1 16.4 25 -2 0.7 -3.8 5.5 -4.5 12.3 -0.5 4.6 -1.1 6.6 -2.1 6.6 -0.8 0 -5.3 -3.9 -10 -8.7z"/>
  <path d="M179.9 495.4 c0 -1.3 -0.2 -1.5 -0.6 -0.5 -0.8 1.9 -6.8 -19 -9.5 -32.9 -1.9 -9.7 -2.2 -14.3 -2 -29.5 0.1 -9.9 0.6 -19.5 1 -21.4 0.7 -3.4 0.7 -3.4 3.4 2 1.4 3 3.8 11.3 5.3 18.4 4.1 20.5 8.2 35.1 12.4 44.5 3.4 7.9 3.7 9.1 2.6 11.7 -0.7 1.6 -2.8 3.7 -5.1 4.8 -2.1 1.1 -4.7 2.6 -5.6 3.4 -1.6 1.2 -1.8 1.2 -1.9 -0.5z"/>
 </g>
 <g fill="#4a5051">
  <path d="M432 326.1 c0 -1 -0.6 -2.1 -1.4 -2.4 -1 -0.4 -1.6 -3.3 -2.1 -9.7 -0.7 -8.3 -0.9 -9.1 -2.6 -8.7 -1.4 0.4 -1.9 0 -1.9 -1.4 0 -1.8 0.8 -1.9 11 -1.9 6.7 0 11 0.4 11 1 0 0.6 -0.5 1 -1 1 -1.5 0 -3.8 5.8 -4.5 11.3 -0.4 3.1 -1.1 4.7 -2.1 4.7 -0.8 0 -1.4 -0.6 -1.5 -1.2 -0.1 -2.5 -1.8 2.8 -1.8 6 -0.1 3.5 -3.1 4.8 -3.1 1.3z"/>
  <path d="M675.9 227.1 c1.3 -0.8 1.1 -1.6 -0.8 -5.3 -1.2 -2.5 -1.9 -5.1 -1.5 -6.1 0.3 -1 0.1 -1.7 -0.5 -1.7 -0.6 0 -1.1 0.5 -1.1 1.2 0 0.9 -0.3 0.9 -1.1 0.1 -1.8 -1.8 -0.1 -5.3 2.7 -5.3 1.7 0 2.8 -0.9 3.8 -3.2 0.8 -1.8 2.3 -4.5 3.2 -6 1.8 -2.7 1.8 -2.7 -1.4 -8.9 -0.1 -0.4 2.5 -2.4 5.8 -4.4 6.9 -4.2 7.9 -4 8.7 2.5 0.5 3.6 1.1 4.4 3.8 5.6 2.2 0.9 3.7 2.4 4.4 4.5 1.3 3.9 1.4 3.5 -0.1 5.1 -0.7 0.7 -1.8 2.8 -2.5 4.6 -0.9 2.6 -0.9 3.2 0.3 3.2 0.8 0 1.4 0.7 1.4 1.5 0 0.8 -0.4 1.5 -0.8 1.5 -0.4 0 -5 2.7 -10.2 6 -6.2 3.9 -10.5 6 -12.5 6 -2.2 0 -2.6 -0.3 -1.6 -0.9z"/>
  <path d="M718.7 224.5 c-0.9 -2 -1.7 -4.4 -1.7 -5.5 0 -2.4 -3.1 -9 -4.2 -9 -1.5 0 -0.8 -2.9 1 -3.9 1 -0.6 1.2 -1.1 0.4 -1.1 -1 0 -0.9 -0.5 0.2 -2.2 1.1 -1.7 1.2 -3.3 0.6 -6.3 -1 -4.6 -3.3 -11.1 -4.3 -12.1 -1.5 -1.5 -0.6 -6.2 1.6 -8.2 2.6 -2.5 6.7 -2 6.7 0.8 0 1 1.1 2.5 2.5 3.4 1.4 0.9 3.6 3.4 4.9 5.5 1.3 2.1 3.1 3.8 4 3.9 0.9 0.1 2.3 0.3 3.1 0.4 0.8 0.1 1.5 0.7 1.5 1.5 0 0.8 1.9 0 5.3 -2.2 2.8 -1.9 6.7 -3.7 8.4 -4.1 2.8 -0.6 3.9 -0.1 7.3 3 2.2 2 4.9 3.6 6 3.6 1.1 0 2 0.7 2 1.5 0 0.8 -0.9 1.5 -2 1.5 -1.3 0 -1.8 0.5 -1.4 1.4 0.3 0.9 -0.3 2 -1.5 2.8 -1.2 0.7 -2.1 2.2 -2.1 3.4 0 2.1 -3.8 6.4 -5.7 6.4 -0.6 0 -1 0.8 -0.9 1.7 0.2 2.5 -6.9 4.8 -11.7 3.9 -2.1 -0.4 -3.5 -1.1 -3.2 -1.7 0.9 -1.4 -0.9 -1.1 -6 1.1 -4.7 2 -4.7 2 -4 5.9 1.3 7.8 -3.7 11.1 -6.8 4.6z"/>
 </g>
 <g fill="#23696e">
  <path d="M632.6 742.8 c-3.8 -5.4 -0.6 -14.4 4.6 -13.1 3.1 0.8 3.8 2 3.8 6.8 0 7.3 -5.1 11.1 -8.4 6.3z"/>
  <path d="M671.2 744.1 c-2.4 -1.5 -2.8 -7.4 -2.2 -40.4 0.5 -32.6 0.5 -32.9 2.8 -34.7 1.2 -1 2.2 -2.3 2.2 -2.9 0 -0.6 0.9 -1.1 2 -1.1 2 0 2 0.6 1.9 38.1 -0.1 36.1 -0.2 38.2 -2 40 -2.1 2.1 -2.8 2.3 -4.7 1z"/>
  <path d="M763.6 742.4 c-3.1 -3.1 -1.7 -23.4 1.7 -23.4 0.5 0 0.7 -1.1 0.5 -2.4 -0.4 -2 0 -2.5 2.3 -2.8 3.2 -0.5 3 -1.2 3.3 17 0.1 9.2 -0.1 10.5 -1.8 11.8 -2.5 1.8 -4.1 1.8 -6 -0.2z"/>
  <path d="M687.7 648 c0.3 -12.4 0.7 -22.7 0.9 -22.9 0.2 -0.2 1.8 -0.1 3.7 0.3 3.4 0.6 3.4 0.6 4 10.4 0.9 12.3 0.7 27.8 -0.3 31.7 -0.4 1.7 -0.8 2.2 -0.9 1.3 -0.1 -1.2 -0.9 -1.8 -2.5 -1.8 -1.7 0 -2.7 -0.7 -3.3 -2.2 -0.6 -2 -0.8 -1.8 -1.4 1.7 -0.4 2.2 -0.4 -6.1 -0.2 -18.5z"/>
  <path d="M724.2 635.3 c-0.2 -16.5 0.1 -21.3 1.1 -21.3 0.6 0 2 -1.8 3 -4 1.2 -2.6 2.5 -4 3.8 -4 1.8 0 1.9 0.9 1.9 15.9 0 8.8 -0.3 16.1 -0.7 16.3 -0.5 0.2 -2.2 3.2 -4 6.8 -2.1 4.2 -3.3 5.8 -3.4 4.5 -0.1 -1.1 -0.5 0 -0.9 2.5 -0.4 2.6 -0.8 -4.5 -0.8 -16.7z"/>
  <path d="M428 650.7 c0 -0.6 0.5 -2.9 1.1 -5.1 0.9 -3.4 0.8 -4.1 -1.3 -6.3 -1.3 -1.4 -5 -4.3 -8.3 -6.5 -3.3 -2.2 -6.3 -4.5 -6.7 -5.2 -0.5 -0.9 1.9 -2.1 7.7 -4 4.6 -1.5 15.8 -6.4 24.9 -11 9.6 -4.8 16.6 -7.8 16.6 -7.1 0 0.7 4.5 5 9.9 9.6 5.5 4.6 10 8.7 10 9.1 0.1 1.2 -14.1 9.2 -29.4 16.8 -17.9 8.7 -24.5 11.4 -24.5 9.7z"/>
  <path d="M538.5 628.8 c-1 -0.6 -4.4 -3.7 -7.5 -6.8 -3 -3.1 -7 -6.2 -8.7 -6.9 -3.7 -1.5 -4.2 -3.1 -1.5 -4.7 19.9 -12.9 22.4 -14.2 25.5 -13.3 7.4 1.8 7.5 1.9 8.1 6.2 0.3 2.3 0.8 5.9 1.2 7.9 1 6.2 -1.8 12.8 -7 16.1 -4.7 2.9 -7 3.3 -10.1 1.5z"/>
  <path d="M180.7 604.1 c-4.3 -9.2 -8.3 -21.8 -9.7 -30.3 -1.2 -7.4 -1.3 -17.8 -0.2 -17.8 1.4 0.1 6.9 8.5 8.7 13.4 2 5.4 12.8 22.1 20.7 31.9 5 6.2 5 6.2 -0.9 6.8 -3.2 0.3 -6.6 0.9 -7.5 1.2 -3.9 1.5 -5.4 2 -6.4 2.2 -0.7 0.2 -2.8 -3.1 -4.7 -7.4z"/>
 </g>
 <g fill="#7a5936">
  <path d="M367 618.5 c0 -0.8 0.7 -1.5 1.6 -1.5 1.2 0 1.5 -0.6 1 -2.4 -0.5 -1.9 -0.1 -2.5 1.7 -3 3.2 -1 8 -7.3 8 -10.6 0 -1.6 -1.5 -4.8 -3.6 -7.8 -2 -2.7 -3.7 -5.2 -3.7 -5.5 0 -0.2 2.6 -0.8 5.8 -1.2 16.9 -2 33.5 -7 53.8 -16 19.2 -8.6 31 -15.3 55.9 -31.7 26.9 -17.7 29.1 -18.9 32 -17.8 1.4 0.5 2.5 1.5 2.5 2.2 0 0.6 1.8 3.3 4 5.9 4.5 5.4 5.2 9.4 2 12.5 -2.3 2.1 -2.6 2.5 -9 9 -5.1 5.2 -27.1 20 -46.5 31.2 -31.9 18.5 -65.9 32.4 -86.5 35.6 -17.5 2.6 -19 2.7 -19 1.1z"/>
  <path d="M807.5 521.3 c-3.8 -3 -10 -7.3 -13.8 -9.5 -7.9 -4.8 -8.5 -5.4 -5.3 -6.2 1.5 -0.4 3.7 -2.6 5.6 -5.8 1.8 -2.9 3.7 -5.6 4.3 -5.9 1.2 -0.8 0 -7.6 -1.4 -8.1 -0.6 -0.2 -0.9 -1.8 -0.7 -3.7 0.3 -3.3 0.3 -3.3 10.6 4.3 9.4 7.1 11.8 9.9 9.1 10.8 -0.5 0.2 -1.2 2.3 -1.5 4.6 -0.4 3.4 0.1 5.4 2.6 10.1 3.2 5.9 3.2 5.9 1.1 9.9 -1.1 2.2 -2.4 4.3 -2.8 4.5 -0.5 0.3 -3.9 -2 -7.8 -5z"/>
  <path d="M212.4 501.3 c-6.9 -9.4 -16.2 -28.7 -21.5 -44.3 -4.6 -14 -7.5 -29.4 -6 -32.4 0.5 -1.2 1.3 -5 1.6 -8.6 1.3 -13.2 4.6 -18.5 5.8 -9.5 0.4 2.5 2 7.2 3.7 10.5 1.6 3.2 4.6 10.8 6.6 16.7 3.8 11.4 11.8 28 18.3 38 2.1 3.3 7.5 10.3 11.9 15.6 8.1 9.6 8.1 9.6 4.7 10.3 -1.9 0.3 -5.4 2.3 -7.7 4.3 -4.9 4.2 -9.3 7.1 -10.7 7.1 -0.5 0 -3.5 -3.5 -6.7 -7.7z"/>
 </g>
 <g fill="#267477">
  <path d="M614.9 741.1 c-2.1 -1.7 -2.4 -2.8 -2.4 -8.8 0 -6.8 0 -6.8 4.2 -7.1 4.1 -0.3 4.1 -0.3 4.8 3.7 0.6 3.7 0.3 7.4 -1.1 12.4 -0.7 2.2 -2.6 2.2 -5.5 -0.2z"/>
  <path d="M615 718.1 c-2.5 -0.7 -2.5 -0.7 -2.8 -23.6 -0.2 -15.4 0.1 -24.2 0.9 -26.6 0.9 -3 0.8 -4.1 -0.6 -6.8 -1.4 -2.9 -1.5 -6 -1 -27.4 0.6 -22.7 0.8 -24.3 2.7 -25.9 1.1 -1 2.9 -1.8 3.9 -1.8 4.1 0 4.2 2.1 3.6 52.9 -0.4 26.7 -0.7 51.2 -0.7 54.4 0 6.1 -0.3 6.4 -6 4.8z"/>
  <path d="M651 717.5 c-1.6 -1.9 -1.5 -119.6 0 -122.6 1.7 -3.1 5.1 -3.5 7.3 -0.8 1.8 2.3 1.9 4.3 1.2 62.9 -0.4 33.3 -0.9 60.8 -1.2 61.3 -0.8 1.3 -6 0.7 -7.3 -0.8z"/>
  <path d="M733 620 c-0.5 -12.5 -0.5 -12.5 -2.6 -8 -1.2 2.5 -2.5 5.4 -2.9 6.5 -0.7 1.9 -0.8 1.8 -1.5 -0.5 -0.7 -2.5 -0.7 -2.5 -1.2 0 -0.2 1.4 -0.7 -3.1 -0.9 -10 -0.4 -11.8 -0.3 -12.6 1.8 -14.7 2.8 -2.9 4.9 -2.9 6.8 0.1 1.3 1.9 1.5 5.5 1.3 20.7 -0.3 18 -0.3 18.1 -0.8 5.9z"/>
  <path d="M469.6 616.9 c-5.8 -4.9 -10.5 -9.6 -10.3 -10.2 0.1 -0.7 3.6 -3.2 7.7 -5.6 4.1 -2.4 12.9 -7.8 19.5 -12 17.1 -11 25.7 -16.3 25.8 -15.9 0.1 0.2 0.8 1.3 1.5 2.5 0.6 1.3 1.2 3.4 1.2 4.8 0 1.5 2 5.1 5 9 2.8 3.5 5 6.8 5 7.2 -0.1 0.4 -5.8 4.4 -12.7 8.8 -7 4.4 -16.5 10.5 -21.2 13.6 -4.7 3 -9.1 5.8 -9.8 6.2 -0.7 0.4 -5.4 -3 -11.7 -8.4z"/>
  <path d="M551 623.7 c0 -0.7 0.7 -3.5 1.6 -6.1 1.4 -4 1.4 -5.2 0.3 -7.8 -0.7 -1.8 -1.2 -4.4 -1.1 -5.8 0.2 -2.7 0.1 -2.8 -9.7 -5.6 -2 -0.6 31.1 -21.5 45.7 -28.8 3.5 -1.8 5.8 -2.4 6.5 -1.8 1.3 1 20.8 7.2 22.7 7.2 0.7 0 2.3 0.9 3.7 2 1.5 1.2 4.1 2 6.2 2 2 0 4.2 0.4 5 0.9 1.8 1.1 0.7 4.1 -1.5 4.1 -2 0 -27.5 11.5 -37.9 17.2 -4.4 2.4 -15.3 8.8 -24.1 14.1 -8.9 5.3 -16.5 9.7 -16.8 9.7 -0.3 0 -0.6 -0.6 -0.6 -1.3z"/>
  <path d="M803.3 609.1 c-8.6 -6.9 -9.3 -7.8 -9.3 -11.1 0 -3.4 3.9 -13 6.4 -16 0.7 -0.8 1.6 -2.7 2 -4.2 0.3 -1.6 1.1 -2.8 1.7 -2.8 3.2 0 26.8 25.3 26.9 28.8 0 1.4 -1.6 1.6 -2.5 0.2 -0.3 -0.5 -1.3 -1 -2.1 -1 -1.7 0 -10.1 7.5 -12.3 11 -1.6 2.6 -1.6 2.6 -10.8 -4.9z"/>
  <path d="M195.8 584.3 c-12.8 -17.2 -12.8 -17.1 -10.4 -18.8 2.5 -1.9 11.6 -4.5 15.4 -4.5 2.4 0 3.7 1 7.2 5.5 2.3 3 8.3 9.3 13.2 14 5.3 5 8.4 8.7 7.6 8.9 -0.7 0.3 -3.3 0.7 -5.8 1 -11.9 1.4 -13.5 1.8 -15.6 4.3 -2.1 2.4 -2.1 2.4 -11.6 -10.4z"/>
 </g>
 <g fill="#8a6740">
  <path d="M340 578.3 c-1.4 -0.2 -7.4 -1 -13.5 -1.9 -13 -1.8 -28.1 -6.6 -41.5 -13.2 -24.7 -12.3 -51.2 -33.5 -65.3 -52.3 -2.6 -3.5 -2.6 -3.5 0.6 -5.4 1.8 -1 5.1 -3.5 7.5 -5.6 2.3 -2 5.8 -4 7.8 -4.4 3.4 -0.6 3.9 -0.3 11.2 6.7 14.8 14 37.1 28.2 56.2 35.8 12.5 4.9 12.5 4.9 13 8.8 0.6 4.4 4.6 9.7 8.5 11.2 1.4 0.6 8 1 14.6 1 16.8 0 19.8 0.9 25.8 7.9 2.7 3.2 5.3 6.9 5.6 8.3 0.6 2.4 0.4 2.5 -4.7 3.1 -5.6 0.7 -21.5 0.7 -25.8 0z"/>
  <path d="M515.5 552.8 c1 -3.1 3.4 -6.8 4.5 -6.8 0.5 0 1.1 -0.9 1.5 -1.9 0.3 -1.1 1.4 -2.3 2.4 -2.6 1 -0.3 2.4 -1.6 3.1 -2.9 1.1 -2.2 0.9 -2.9 -2.7 -7.3 -2.2 -2.6 -4.3 -5.6 -4.6 -6.5 -0.4 -1 -1.3 -1.8 -2.2 -1.8 -3.5 0 -1 -2.8 7.3 -8.1 4.8 -3.1 14.1 -9.2 20.7 -13.5 6.6 -4.2 16.9 -10.6 22.9 -14 10.9 -6.3 10.9 -6.3 12.8 -3.9 1 1.3 1.8 2.8 1.8 3.4 0 1.2 4.9 10.3 6 11.1 1.5 1.1 3 5 3 7.7 0 2.5 -0.7 3.2 -5.7 5.7 -8.2 4 -30.1 16.8 -41.3 24.1 -27.7 18.2 -30.2 19.6 -29.5 17.3z"/>
  <path d="M847.2 519.5 c-1.2 -0.9 -5.3 -6.2 -9.2 -11.9 -6.4 -9.4 -13.9 -17.6 -21.4 -23.4 -1.6 -1.2 -2.7 -2.4 -2.5 -2.5 0.2 -0.2 1.9 -1.4 3.8 -2.7 3.5 -2.4 6.5 -7.9 7.6 -14.2 0.4 -2.1 1 -3.8 1.4 -3.8 1.4 0 9 10.8 12.3 17.5 3.9 7.8 11.3 30.4 12.3 37.8 0.8 5.2 -0.2 6 -4.3 3.2z"/>
  <path d="M776 502.2 c-11.5 -5.5 -11.5 -5.5 -11.7 -12.9 -0.2 -7.3 -0.2 -7.3 4 -10.1 2.3 -1.5 7 -3.7 10.5 -4.9 6.4 -2.1 6.4 -2.1 12.3 1.3 5.2 3.1 9.4 7.4 7.2 7.4 -0.4 0 -0.3 0.4 0.3 0.8 1.1 0.7 3.4 6.6 3.4 8.8 0 0.7 -0.6 1.9 -1.3 2.6 -0.8 0.7 -2.6 3.4 -4.2 5.8 -3.1 5.1 -5.2 7 -7.4 6.9 -0.9 0 -6.8 -2.6 -13.1 -5.7z"/>
  <path d="M182.1 420.6 c-3.1 -11.7 -5.7 -26.1 -6.6 -35.7 -0.7 -7.2 -0.5 -7.9 2 -12 1.5 -2.4 3.5 -5.3 4.5 -6.4 0.9 -1.1 2.5 -4.1 3.4 -6.7 1.1 -3.1 2.4 -4.8 3.4 -4.8 1.4 0 1.7 1 1.4 6.2 -0.2 3.5 0.1 14.4 0.6 24.3 0.6 13.4 0.6 18.9 -0.3 21.5 -0.7 2 -1.6 6.9 -2 11 -0.4 4.4 -1.4 8.4 -2.4 9.6 -1.5 1.9 -1.7 1.7 -4 -7z"/>
  <path d="M444.7 182.9 c-2.9 -1.7 -4.9 -6.8 -4.3 -10.5 0.8 -3.8 5.7 -8.4 9.1 -8.4 3 0 8.1 4.3 8.9 7.4 0.7 3 -0.8 7.3 -3.6 10.4 -2.3 2.4 -7 2.9 -10.1 1.1z"/>
 </g>
 <g fill="#2e8385">
  <path d="M676.9 686.3 c0 -10.9 -0.3 -19.1 -0.6 -18.3 -0.4 0.8 -1.4 2.1 -2.4 2.7 -0.9 0.7 -2.3 3.6 -3 6.5 -1.4 5.3 -1.4 5.3 -2 -8.2 -0.4 -7.4 -0.7 -20.4 -0.8 -28.7 -0.1 -13 0.1 -15.3 1.4 -15.3 0.8 0 2.3 -0.9 3.2 -2 1 -1.1 2.5 -2 3.5 -2 1.7 0 1.8 2.4 1.8 42.5 0 23.4 -0.2 42.5 -0.5 42.5 -0.3 0 -0.5 -8.9 -0.6 -19.7z"/>
  <path d="M788.7 598.6 c-3.7 -2.4 -12.8 -7 -20.2 -10.2 -7.4 -3.3 -13.5 -6.5 -13.5 -7.1 0 -0.7 0.4 -1.3 0.9 -1.3 0.5 0 3.8 -2.7 7.4 -6 5.9 -5.5 6.6 -6.5 7.2 -11 1.1 -8.1 1.8 -8.1 15.7 0 6.7 3.9 14.1 8.5 16.4 10.3 3.4 2.6 3.9 3.4 2.7 4.5 -0.7 0.7 -1.3 2.2 -1.3 3.2 0 1 -0.5 2.2 -1 2.5 -1.9 1.1 -6.2 10.8 -6.9 15.1 -0.6 4.3 -0.6 4.3 -7.4 0z"/>
  <path d="M521.4 595.8 c-6.4 -7.4 -8.8 -11.3 -8.6 -14.1 0.2 -2.2 -0.3 -3 -1.8 -3.4 -1.7 -0.5 -1.8 -0.8 -0.8 -2.1 0.7 -0.8 1.3 -1.8 1.3 -2.1 0 -0.3 3.6 -2.9 8 -5.6 4.4 -2.8 9.2 -5.9 10.8 -6.9 1.5 -1 2.7 -1.3 2.7 -0.8 0 0.6 1.6 1.4 3.5 1.8 2.2 0.4 5.8 2.7 10.1 6.5 3.7 3.2 7.3 5.9 8 5.9 0.8 0 1.4 0.4 1.4 0.8 0 0.7 -31.3 22.2 -32.3 22.2 -0.2 0 -1.2 -1 -2.3 -2.2z"/>
  <path d="M630.1 582.3 c-0.6 -0.7 -2.3 -1 -3.9 -0.7 -1.9 0.4 -3.8 -0.2 -6.5 -2 -2.1 -1.4 -4.3 -2.6 -4.8 -2.6 -1.8 0 -21.3 -6.2 -23.1 -7.4 -1.4 -0.8 -0.9 -1.4 3.5 -4 8.4 -4.7 26.2 -12 41.7 -17 13.2 -4.3 25.2 -6.7 44.9 -9.1 5.4 -0.6 5.4 -0.6 4.7 4.6 -0.4 2.9 -1.6 6.3 -2.7 7.7 -1.3 1.7 -1.9 4 -1.9 7.4 0 2.6 -0.6 6.6 -1.2 8.8 -1.2 3.7 -1.5 3.9 -6.3 4.5 -6.9 0.9 -27.5 5.9 -36.1 8.7 -5.6 1.9 -7.3 2.1 -8.3 1.1z"/>
  <path d="M179.2 560.2 c-3.3 -5.4 -6.7 -11.2 -7.7 -13 -3.6 -7.4 -6.8 -34.6 -6.3 -54.2 0.3 -14.3 1.1 -14 2.8 1 1.3 11.5 3.5 18 11.1 33 4.9 9.5 15.9 25.2 22.7 32.3 3.6 3.7 3.6 3.7 0.8 3.7 -4.3 0 -13.6 3 -15.6 5 -1.7 1.7 -2 1.5 -7.8 -7.8z"/>
  <path d="M487 227.2 c-2.2 -2.3 -3 -4 -3 -6.7 0 -4.9 4.4 -9.5 9.2 -9.5 11.6 0 12.1 16.8 0.5 18.7 -3.1 0.5 -4 0.1 -6.7 -2.5z"/>
 </g>
 <g fill="#3b8d8b">
  <path d="M639 661.1 c0 -2.8 -0.6 -4.2 -2 -5.2 -1.4 -1 -2.4 -3.4 -3.3 -7.9 -1.2 -6.5 -1.2 -6.5 -1.8 2 -0.3 4.7 -0.6 -4.1 -0.7 -19.7 -0.2 -27.1 -0.1 -28.4 1.8 -30.3 2.2 -2.2 2.9 -2.4 5 -1 2 1.3 2.8 12.7 2.9 42.3 0.1 15.2 -0.3 23.7 -0.9 23.7 -0.5 0 -1 -1.7 -1 -3.9z"/>
  <path d="M687.8 624 c-0.4 -4.1 -0.7 -13 -0.8 -19.8 -0.1 -9.8 0.2 -12.9 1.5 -14.8 1.7 -2.6 4.6 -3.1 6.3 -1.1 1.7 2.1 2.7 34.1 1.2 38.8 -1.3 3.9 -1.3 3.9 -3.2 1.9 -2.4 -2.6 -3.6 -2.5 -4 0.3 -0.2 1.2 -0.7 -1.2 -1 -5.3z"/>
  <path d="M668 610.5 c0 -16.3 0 -16.6 2.5 -19 2.8 -2.9 3.8 -3.1 5.9 -0.9 1.3 1.3 1.6 4.4 1.6 18.2 0 9.2 -0.4 16.1 -0.8 15.5 -0.6 -0.9 -1.2 -0.7 -2.5 0.7 -0.9 1.1 -2.8 2 -4.2 2 -2.5 0 -2.5 0 -2.5 -16.5z"/>
  <path d="M847.4 612.5 c-1.2 -0.8 -5.9 -7.2 -10.6 -14.2 -9.5 -14.2 -19.7 -24.3 -35.4 -35 -4.6 -3.1 -8.4 -5.9 -8.4 -6.2 0 -0.4 1.8 -1.7 4 -3.1 2.2 -1.4 4 -2.7 4 -3.1 0 -0.8 4.8 -2.9 6.7 -2.9 0.9 0 3 -1.1 4.8 -2.4 3.2 -2.5 3.2 -2.5 8 1.7 10.7 9.3 20.9 26.7 26 44.3 2.2 7.8 4.4 22.4 3.4 22.4 -0.3 0 -1.4 -0.7 -2.5 -1.5z"/>
  <path d="M753.9 582 c-3.3 -1.9 -19.8 -6.2 -31.4 -8 -8.5 -1.4 -16.9 -2 -28.6 -2 -16.7 0 -16.7 0 -15.6 -3.7 0.5 -2.1 1.1 -6.4 1.1 -9.5 0.1 -4.1 0.8 -6.5 2.2 -8.5 2.7 -3.6 4 -9.9 2.2 -10.6 -0.7 -0.3 5.6 -0.6 13.9 -0.6 22.4 -0.1 43.3 4.1 69 14.1 9.6 3.7 10.3 4.1 8.5 5.4 -1.3 0.9 -2.2 3.1 -2.7 6.3 -0.6 4.2 -1.4 5.6 -5.8 9.8 -5.1 4.8 -9.6 8.3 -10.7 8.3 -0.3 0 -1.2 -0.5 -2.1 -1z"/>
  <path d="M551.6 576.5 c-1.5 -0.8 -5.2 -3.7 -8.2 -6.4 -3.3 -3 -6.6 -5.1 -8.8 -5.5 -7.5 -1.4 -6.3 -2.5 22.4 -19.8 9.6 -5.8 19.5 -11.5 21.9 -12.8 5.2 -2.6 5.9 -2.3 16.9 5.5 3.5 2.5 7 4.5 7.9 4.5 2.4 0 8.3 3.1 8.3 4.4 0 0.6 -6.2 4 -13.8 7.6 -11.6 5.5 -29.5 15.2 -40.8 22.1 -2.7 1.6 -3.3 1.7 -5.8 0.4z"/>
  <path d="M405.5 180.5 c-2.7 -2.6 -3.1 -5.7 -1.5 -10.1 3.2 -8.4 13.1 -6.4 14.7 2.9 0.5 3.1 0.1 4 -2.5 6.7 -3.7 3.7 -7.4 3.9 -10.7 0.5z"/>
 </g>
 <g fill="#96754b">
  <path d="M368.3 576.4 c-1.1 -3.2 -9.6 -12.6 -12.3 -13.6 -1.4 -0.6 -8.3 -1.2 -15.5 -1.4 -17.1 -0.4 -18.8 -0.8 -23 -5.2 -2.6 -2.8 -3.5 -4.6 -3.5 -7.2 0 -2 -0.5 -4.1 -1.2 -4.8 -2.2 -2.2 -0.1 -2.2 9.5 0.3 15 3.8 25.5 4.8 41.7 4.2 12 -0.5 16.1 -1.1 23.5 -3.4 10.4 -3.2 21.4 -3.6 24.4 -0.9 1 0.9 2.2 1.6 2.8 1.6 0.6 0 3.3 1.5 6 3.4 3.2 2.2 6.7 3.6 10.1 4.1 4.7 0.6 5.2 0.9 5.2 3.1 0 2.1 -1.2 3 -8.5 6.4 -13.9 6.4 -36 12.5 -52.7 14.5 -5.1 0.6 -5.9 0.5 -6.5 -1.1z"/>
  <path d="M589.7 508.4 c-0.3 -0.3 -0.3 -1.2 -0.1 -1.9 0.5 -1.3 -1.1 -5.4 -2.5 -6.5 -1 -0.8 -4.5 -6.4 -4.6 -7.3 0 -0.4 -0.6 -1.2 -1.4 -1.6 -0.7 -0.5 -1 -1.4 -0.7 -2 0.4 -0.6 -0.2 -2.4 -1.4 -3.9 -2.2 -2.7 -2.2 -2.7 13.6 -10.4 15.9 -7.8 33.3 -14.1 48.7 -17.8 10.6 -2.6 11 -2.6 10.5 0.4 -0.4 1.9 0.3 3.1 3 5.3 1.9 1.5 6.6 5.8 10.3 9.6 9.3 9.1 9.1 11.8 -0.6 13.1 -18.5 2.6 -50.5 12 -64.9 19.2 -10.1 5 -9.1 4.6 -9.9 3.8z"/>
  <path d="M756.3 494.1 c-5.9 -2.1 -7.3 -3 -7.3 -4.7 0 -1.8 -5.3 -10.1 -9.4 -14.6 -2.4 -2.6 -2 -4.5 1.9 -9.8 1.9 -2.6 3.5 -5.5 3.5 -6.5 0 -1.4 0.6 -1.6 3.8 -1 8.3 1.5 37.2 14 37.2 16 0 0.7 -2.5 2 -5.7 3 -3.1 1 -7.6 3.1 -10 4.8 -3.7 2.4 -4.3 3.3 -3.8 5.1 0.4 1.1 0.8 3 0.9 4.2 0.1 1.1 0.6 2.5 0.9 3.2 0.7 1.1 -2.2 3.4 -4 3.1 -0.4 -0.1 -4.1 -1.3 -8 -2.8z"/>
  <path d="M248.3 488.4 c-14.1 -13 -27.1 -32.5 -36.8 -54.9 -9.7 -22.4 -12.2 -32.9 -13.2 -55.7 -0.6 -14.7 -0.3 -15.7 4.1 -12.3 1.1 0.8 4.1 1.5 6.6 1.5 4.7 0 4.7 0 5.4 11.2 1.7 25.9 7.9 45.6 22.8 71.9 3.3 5.9 7.9 12.8 10.2 15.5 5.2 6.1 7.4 13.7 6 21.5 -0.9 5.1 -0.9 5.1 -5.1 1.3z"/>
  <path d="M833.8 455.7 c-5.8 -6.2 -12.6 -12.8 -15.2 -14.7 -4.5 -3.5 -5.6 -5 -3.5 -5 0.5 0 2.8 -1.4 4.9 -3.1 3.2 -2.6 3.7 -3.5 3 -5 -1.6 -2.8 -1.2 -8.9 0.4 -8.9 2.9 0 15.2 18.4 22.2 33.5 3 6.3 3.3 14.5 0.6 14.5 -1 0 -6.4 -4.9 -12.4 -11.3z"/>
  <path d="M175.1 377.5 c-0.1 -10.9 2 -23.2 6.9 -41 5.9 -21.2 9.1 -27.9 10.6 -22 0.3 1.4 0.1 8.8 -0.5 16.3 -0.6 7.6 -1.1 16 -1.1 18.6 0 3.2 -0.9 6.9 -2.6 10.5 -2.9 6.4 -2.6 5.8 -7.8 13.7 -2.2 3.2 -4.3 7.2 -4.7 8.9 -0.5 2.1 -0.7 0.6 -0.8 -5z"/>
 </g>
 <g fill="#5a857f">
  <path d="M226.4 699.5 c0 -6.6 0.1 -9.2 0.3 -5.7 0.2 3.4 0.2 8.8 0 12 -0.2 3.1 -0.3 0.3 -0.3 -6.3z"/>
  <path d="M715 664.2 c0 -36.7 -0.1 -38.2 -1.9 -38.2 -2 0 -3.1 -3.4 -3.1 -9.5 0 -5.3 -1.2 -9.5 -2.6 -9.5 -1 0 -1.4 2.9 -1.7 12.8 -0.2 9.8 -0.3 8.3 -0.5 -7 -0.2 -19.3 -0.2 -19.7 2.1 -22.4 1.8 -2 2.8 -2.5 4.6 -1.9 5 1.5 5.1 3.2 4.4 60.1 -0.3 29.1 -0.7 53.1 -0.9 53.3 -0.2 0.2 -0.4 -16.7 -0.4 -37.7z"/>
  <path d="M705.5 210 c0.3 -0.5 1.5 -1.5 2.6 -2 1.6 -0.9 1.9 -0.7 1.9 1 0 1.5 -0.7 2 -2.6 2 -1.4 0 -2.2 -0.4 -1.9 -1z"/>
 </g>
 <g fill="#a27f51">
  <path d="M433.5 559 c-0.3 -0.6 -0.3 -1.5 0.1 -2.2 0.5 -0.8 0 -0.9 -1.4 -0.6 -1.2 0.4 -2.5 0.2 -2.8 -0.3 -0.3 -0.5 -1.6 -0.9 -3 -0.9 -1.3 0 -4.7 -1.6 -7.5 -3.5 -2.8 -1.9 -5.6 -3.5 -6.2 -3.5 -0.6 0 -1.8 -0.7 -2.7 -1.5 -1 -0.9 -3.9 -1.6 -6.8 -1.7 -2.8 -0.1 -4.8 -0.6 -4.6 -1 0.3 -0.4 -0.1 -0.8 -0.8 -0.8 -0.7 0 3.2 -1.6 8.7 -3.4 20.4 -6.9 31.8 -12.4 55.2 -26.7 7.3 -4.5 8.6 -4.3 16.6 2.3 4.8 4.1 4.9 4.3 4.3 8.5 -1 7.5 -8.4 14.7 -23.5 23.1 -18.4 10.2 -24.9 13.3 -25.6 12.2z"/>
  <path d="M743 489.9 c-3.6 -1.1 -12.1 -2.9 -19 -4 -10.8 -1.8 -15.5 -2 -34.8 -1.7 -22.1 0.5 -22.2 0.5 -20.9 -1.5 1.2 -1.9 0.8 -2.6 -5.4 -8.6 -9.1 -9 -13 -12.1 -15.2 -12.1 -1.7 0 -1.7 -0.2 0.3 -2.7 1.3 -1.6 1.7 -2.9 1 -3.3 -1.2 -0.7 16.4 -3.6 31.5 -5.1 11.3 -1.1 28 -0.4 43.5 1.8 10.6 1.5 21.8 3.8 22.7 4.6 1.5 1.6 0.5 4.8 -2.7 9.1 -3.3 4.3 -3.6 5.1 -2.3 6.5 0.8 0.9 3.6 4.5 6.2 8.1 4.1 5.5 4.6 6.9 3.8 8.8 -0.6 1.2 -1.3 2.1 -1.6 2.1 -0.3 -0.1 -3.5 -1 -7.1 -2z"/>
  <path d="M806 476.5 c-4.7 -3.5 -9.3 -7 -10.3 -7.7 -1.7 -1.2 -1.6 -1.6 2 -5.3 2.1 -2.3 4.9 -6.2 6.2 -8.8 2.3 -4.4 2.3 -4.8 0.8 -6.5 -1 -1 -1.7 -2.9 -1.7 -4.1 0 -2 0.6 -1.8 7.3 2.8 10.3 7.2 18.4 14.6 18.2 16.8 -0.1 1 -0.5 2.6 -0.9 3.5 -0.4 0.9 -0.5 2.2 -0.1 2.8 0.3 0.5 0.2 1 -0.2 1 -0.5 0 -1.5 1.6 -2.2 3.5 -1.3 3.6 -6.7 8.5 -9.2 8.4 -0.8 0 -5.2 -2.9 -9.9 -6.4z"/>
  <path d="M210.8 370.5 c-0.3 -0.4 -2.2 -0.8 -4.2 -1 -2 -0.2 -4.7 -1 -6 -1.8 -2.3 -1.5 -2.3 -2 -1.9 -10.9 0.2 -5.1 1.1 -16.3 1.9 -24.9 0.7 -8.6 1.4 -16.4 1.4 -17.3 0 -2.4 2.5 -2 5.6 0.9 1.5 1.4 3.5 2.5 4.5 2.5 1 0 2.1 0.5 2.4 1.1 0.4 0.5 1.8 1.5 3.2 2 1.8 0.7 2.3 1.4 1.8 2.7 -1.6 3.9 -4.3 22.5 -4.9 33.1 -0.3 7.5 -1 11.9 -1.9 12.8 -0.7 0.7 -1.6 1.1 -1.9 0.8z"/>
 </g>
 <g fill="#479e9a">
  <path d="M787.1 554.4 c-4.1 -2.4 -12.1 -6.2 -17.8 -8.5 -5.7 -2.3 -10.6 -4.6 -11 -5.2 -1 -1.6 8.2 -9.7 11 -9.7 1.3 0 3.4 -0.9 4.7 -2 1.3 -1.1 2.6 -2 3 -2 0.4 0 1.8 -1.5 3.1 -3.4 2.3 -3.3 2.3 -3.3 7.1 -0.5 14.3 8.4 29.8 19.9 29.8 22 0 1.3 -6.1 5.2 -8.4 5.4 -3.2 0.4 -3.1 0.3 -6 2.8 -1.4 1.2 -3.9 3 -5.4 3.8 -2.6 1.5 -3 1.4 -10.1 -2.7z"/>
  <path d="M607 545.9 c-1.9 -1 -4.2 -1.9 -5.1 -1.9 -0.9 0 -4.3 -1.8 -7.5 -4.1 -3.3 -2.2 -7.4 -4.9 -9.1 -6.1 -1.8 -1.1 -3.3 -2.4 -3.3 -2.8 0 -2.3 25.6 -13.6 48 -21.2 14.5 -4.9 14.5 -4.9 20.7 1.7 5.7 6.3 6.2 7.1 7.1 13.3 0.5 3.7 0.7 7 0.3 7.3 -0.3 0.4 -5.8 1.9 -12.1 3.5 -6.3 1.5 -16.7 4.9 -23 7.6 -6.3 2.6 -11.7 4.8 -12 4.7 -0.3 0 -2.1 -0.9 -4 -2z"/>
  <path d="M549.9 188.7 c-1.5 -1.2 -3.1 -3.1 -3.6 -4.2 -3.2 -6.7 0.5 -15.7 6.6 -16.3 6 -0.6 8.1 0.5 10.2 5.4 2.5 5.5 1.9 9.2 -2.3 14 -3.6 4 -7 4.4 -10.9 1.1z"/>
 </g>
 <g fill="#a98a5e">
  <path d="M470 538.7 c0 -0.7 2.2 -3.8 4.8 -6.8 2.7 -2.9 5.2 -6.6 5.5 -8.1 0.6 -2.4 0.1 -3.2 -4.9 -7.2 -3.1 -2.5 -6 -4.6 -6.5 -4.6 -2.2 0 -0.6 -2 3.2 -3.9 2.2 -1.2 4.6 -2.6 5.2 -3.1 3.1 -2.7 9 -6 11.5 -6.6 1.5 -0.4 3.2 -1.1 3.9 -1.6 3.1 -2.4 15.1 -7.8 17.5 -7.8 1.9 0 3.7 -1.2 6.4 -4.5 4.4 -5.4 6.8 -5.7 12.7 -1.6 4.2 2.8 4.2 2.8 7.2 1 1.7 -1.1 4.7 -1.9 6.8 -1.9 3.6 0 3.7 0.1 3.7 3.8 0 3.8 -0.1 3.8 -15.7 14.5 -30.6 20.7 -59.5 39.7 -60.7 39.7 -0.3 0 -0.6 -0.6 -0.6 -1.3z"/>
  <path d="M349 536.4 c-1.4 -0.2 -5.9 -0.9 -10 -1.5 -11.2 -1.6 -23.5 -4.6 -30.9 -7.6 -21 -8.3 -41.4 -20.7 -51.9 -31.7 -5.9 -6.1 -6.1 -6.5 -5.1 -9.5 0.8 -2.4 0.7 -4.5 -0.5 -9.2 -0.8 -3.4 -1.3 -6.6 -1 -7.1 0.3 -0.5 5.8 4.5 12.1 11.2 12.8 13.4 27 23.7 43.8 31.6 13.4 6.4 34.4 11.4 51 12.1 16.1 0.7 25.5 -0.5 45 -5.8 17.7 -4.7 37.7 -14 52 -24.1 9.4 -6.6 27.2 -23.8 38.5 -37.3 3.7 -4.4 7.4 -8.6 8.3 -9.4 1.5 -1.2 1.7 -1 1.7 1.6 0 1.7 -0.9 3.8 -2 4.8 -1.2 1.1 -2 3.1 -2 5.2 0 1.8 -0.9 6 -2 9.2 -1 3.1 -1.7 6.7 -1.4 7.8 0.5 1.7 -0.5 2.7 -5.3 5.6 -3.2 2 -9 5.9 -12.8 8.7 -3.9 2.9 -10 6.7 -13.7 8.6 -3.7 1.9 -8.2 4.6 -10 6.2 -1.8 1.5 -11.6 6.9 -21.8 11.9 -13.9 6.9 -21.1 9.8 -29 11.8 -17.3 4.4 -22 5.3 -34 6.4 -11.5 1.1 -14.3 1.2 -19 0.5z"/>
  <path d="M783 462.2 c-11.4 -5.9 -15.6 -9.2 -11.6 -9.2 0.8 0 3.5 -1.9 5.9 -4.2 9.1 -8.7 13.8 -12.8 14.9 -12.8 0.5 0 3.2 1.2 5.9 2.7 5.7 3 9.9 8.1 9.9 11.7 0 4.1 -7.1 15.6 -10.8 17.4 -1.2 0.7 -5 -0.8 -14.2 -5.6z"/>
  <path d="M804.9 431.2 c-5.3 -3.7 -10.5 -7.2 -11.5 -7.9 -1.8 -1.1 -1.8 -1.2 0.2 -2.6 1.1 -0.9 2.6 -3.5 3.3 -5.9 0.7 -2.4 1.8 -4.9 2.3 -5.5 0.7 -0.9 0.5 -2 -0.6 -3.8 -1.8 -2.8 -2.1 -6.1 -0.5 -7 1.3 -0.9 13.1 6.9 19.4 12.7 6.2 5.7 10.6 11.4 8.1 10.5 -1.6 -0.6 -1.7 -0.3 -1.2 2 1.9 7.7 1.9 7.7 -2.3 11.1 -2.2 1.7 -4.8 3.2 -5.8 3.1 -1 0 -6.1 -3 -11.4 -6.7z"/>
  <path d="M217 324 c0 -0.6 -0.6 -1 -1.3 -1 -0.7 0 -1.9 -0.6 -2.5 -1.2 -0.7 -0.7 -1.7 -1.4 -2.2 -1.4 -0.6 -0.1 -1.4 -0.2 -1.8 -0.3 -0.5 0 -2.2 -1.3 -3.8 -2.8 -3 -2.8 -3 -2.8 -2.3 -12.3 1.1 -15.7 4.7 -24.1 17.1 -40.5 18 -23.7 32.1 -38.5 46.3 -48.4 13.6 -9.5 17.6 -11.9 24.1 -14.1 4.7 -1.7 5.1 -1.7 6.1 -0.1 1.5 2.5 -1.4 8.1 -5.6 10.6 -4.3 2.5 -21.6 20.3 -31.3 32 -14.3 17.2 -31.3 48.5 -36.9 67.7 -1.9 6.5 -4 12 -4.6 12.3 -0.7 0.2 -1.3 0 -1.3 -0.5z"/>
 </g>
 <g fill="#5aaba4">
  <path d="M752.5 539 c-8 -3.2 -27.5 -7.4 -41.7 -8.9 -13.4 -1.5 -25 -1.3 -40.6 0.7 -7.4 1 -13.5 1.5 -13.7 1.2 -0.1 -0.3 -0.6 -3.1 -0.9 -6.2 -0.7 -5.3 -1.2 -6.2 -7.4 -12.8 -6.7 -7 -6.7 -7 -3.2 -8 1.9 -0.5 8.2 -1.6 14 -2.5 5.8 -0.8 14.4 -2.2 19 -3 15.6 -2.7 31.5 -1.8 57.7 3.5 18.6 3.7 47.2 15.1 48.1 19.2 0.5 2.7 -8.8 10.8 -12.5 10.8 -1.4 0 -4.3 1.8 -7.1 4.4 -4.7 4.4 -4.7 4.4 -11.7 1.6z"/>
 </g>
 <g fill="#b29667">
  <path d="M466.6 511.1 c-0.8 -1.2 68.1 -46.5 88 -57.7 6.5 -3.7 7.6 -4.1 11.1 -3.3 8.5 1.8 9.8 2.2 10.8 2.9 0.6 0.4 2.2 1 3.7 1.4 1.5 0.3 3.2 1.5 3.8 2.6 0.6 1.1 1.7 2 2.5 2 1.6 0 1.9 2.8 0.9 6.6 -0.3 1.2 -2.5 3 -5.2 4.3 -2.6 1.3 -9.9 5.3 -16.2 9 -20.8 12.2 -20.5 12 -22.1 11 -1.1 -0.8 -1.1 -1.2 -0.2 -1.6 0.7 -0.2 1.3 -1.3 1.3 -2.4 0 -2.5 -2.6 -2.4 -6.8 0.1 -4.4 2.7 -5.5 2.5 -10.9 -1.2 -4.6 -3.1 -4.6 -3.1 -8.6 1.5 -2.8 3.4 -4.6 4.7 -6.6 4.7 -2.3 0 -14.3 5.4 -17.4 7.8 -0.7 0.5 -2.4 1.2 -3.9 1.6 -2.5 0.6 -8.3 3.9 -11.4 6.5 -2.3 1.9 -8.9 5.1 -10.6 5.1 -0.9 0 -1.9 -0.4 -2.2 -0.9z"/>
  <path d="M492.2 477.2 c-0.6 -2 -0.2 -4.4 1.6 -9.5 1.3 -3.9 2.1 -8 1.8 -9.2 -0.4 -1.6 0.2 -3.3 1.9 -5.3 1.4 -1.7 2.5 -3.4 2.5 -3.9 0 -0.5 1.1 -2 2.5 -3.3 2.4 -2.3 2.4 -2.3 4.4 0.1 1.1 1.3 2 2.7 2.1 3.2 0 0.4 0.5 0.7 1 0.7 0.6 0 2.9 1.7 5.1 3.8 2.2 2 5 3.9 6.2 4.2 1.8 0.5 0.4 1.8 -8.3 7.8 -5.8 4 -12.6 8.8 -15.2 10.7 -4.7 3.4 -4.7 3.4 -5.6 0.7z"/>
  <path d="M764.4 453.9 c-3.9 -1.5 -11.3 -3.9 -16.5 -5.3 -10.9 -2.8 -12.9 -5 -5.3 -5.9 2.5 -0.2 4.9 -0.9 5.3 -1.5 0.8 -1.2 19 -10.2 20.7 -10.2 0.8 0 2.8 0.9 4.6 2 4 2.4 6.6 2.5 9.7 0.3 2.2 -1.5 2.6 -1.5 6.7 0.8 2.4 1.3 4.4 2.6 4.4 2.9 0 0.3 -2.4 2.5 -5.2 5 -2.8 2.5 -7.1 6.4 -9.5 8.8 -2.4 2.3 -5 4.2 -5.8 4.2 -0.7 0 -1.5 0.4 -1.7 0.9 -0.1 0.5 -3.5 -0.4 -7.4 -2z"/>
  <path d="M790.2 421.8 c-1.8 -1.1 -7.7 -4 -13 -6.4 -7.2 -3.3 -9.6 -4.9 -9.5 -6.2 0.1 -0.9 0.4 -6.6 0.6 -12.5 0.3 -5.9 0.7 -11.1 1.1 -11.4 1.1 -1.2 20.6 6.9 29 12 3.1 1.9 3.5 2.5 2.2 3 -1.6 0.6 -1.6 0.9 -0.2 2.9 1.7 2.4 2.1 6.9 0.9 8.2 -0.5 0.4 -1.5 2.8 -2.4 5.3 -2.1 6.3 -4.4 7.7 -8.7 5.1z"/>
 </g>
 <g fill="#bca375">
  <path d="M227.2 731 c-1.2 -1.6 -2.2 -3.3 -2.2 -3.7 0 -0.5 -1.2 -1 -2.7 -1.1 -1.6 -0.1 -3.6 -1.2 -4.6 -2.3 -1.6 -2 -2 -2.1 -4.3 -0.8 -2.4 1.3 -2.8 1.2 -4.9 -1.5 -1.4 -1.8 -2.9 -2.7 -3.8 -2.3 -1.9 0.7 -6 -2.1 -5.3 -3.8 0.2 -0.7 0.1 -2.9 -0.4 -4.9 -0.6 -2.9 -0.5 -3.9 0.9 -4.9 1 -0.6 2.1 -1.8 2.5 -2.4 0.8 -1.5 -3.2 -13.3 -4.6 -13.3 -0.5 0 -0.8 -1 -0.6 -2.2 0.2 -1.8 1 -2.3 3.3 -2.4 1.7 -0.1 3.6 -0.2 4.2 -0.3 0.7 0 1.6 -1.9 1.9 -4.1 0.7 -4.2 3.5 -7.6 5.7 -6.7 1.6 0.6 2.7 5.9 2.7 13.7 0 5.2 -0.2 5.6 -3 6.8 -3 1.4 -3 1.4 -1 3.9 1.1 1.4 3.4 3.3 5.1 4.2 2.2 1.1 3.7 3 4.9 6 1.8 4.7 4.7 7.2 6 5.1 0.5 -0.9 0.9 -0.9 1.4 -0.1 0.4 0.6 2 1.1 3.5 1.1 3.2 0 4.1 1.8 4.1 8.3 0 5.4 -3.1 10.7 -6.4 10.7 -0.1 0 -1.2 -1.3 -2.4 -3z"/>
  <path d="M346 490.5 c-19.3 -3.3 -40 -14.2 -56.6 -29.8 -7.3 -6.7 -19.2 -21.9 -24.1 -30.7 -4 -7 -10.6 -26 -12.8 -37.1 -2.1 -9.9 -2.4 -33.9 -0.5 -43.8 3.6 -19.6 14.8 -42.4 27.4 -55.8 9.2 -9.7 24.8 -21.9 34.4 -26.7 8.1 -4 23.4 -9 32.6 -10.7 4.2 -0.7 12.8 -1 22.9 -0.7 15 0.5 17.1 0.8 28.6 4.2 13 3.8 23.2 8.6 34.9 16.4 16.9 11.2 26.5 21.2 37.4 39.2 3.3 5.5 6.2 10 6.5 10 0.9 0 27.5 -14.2 33.8 -18 3.3 -2 13 -7.6 21.5 -12.5 16.7 -9.4 22.8 -13 36 -21.1 13.7 -8.3 25.2 -15 30 -17.4 2.5 -1.2 11.7 -6.4 20.5 -11.5 22.9 -13.2 47.9 -26.5 49.8 -26.5 3.2 0 1.7 1.9 -4 5.1 -3.2 1.8 -8.3 4.9 -11.3 6.9 -3 2.1 -8 5 -11 6.5 -3 1.5 -9.5 5.1 -14.5 8 -4.9 2.9 -18 10.4 -29 16.7 -11 6.3 -34.4 20 -52 30.3 -30 17.6 -41.3 24 -59.5 33.8 -4.1 2.2 -7.8 4.3 -8.2 4.6 -1.1 1 1.7 11.6 3 11.3 1 -0.2 11.2 -6.1 34.2 -19.7 3 -1.8 16.3 -9.4 29.5 -17 13.2 -7.6 30.5 -17.6 38.5 -22.3 8 -4.7 24.4 -14.2 36.5 -21.2 24 -13.9 27.9 -16.2 43.5 -26.3 11.7 -7.6 23.7 -14.8 35.2 -21.3 4.2 -2.4 10.4 -6.3 13.7 -8.7 3.3 -2.4 10.1 -7 15.3 -10.2 20.3 -12.6 18.9 -11.2 18.2 -18.1 -0.6 -5.2 -0.3 -6.7 1.9 -11 4.8 -9.5 15.2 -13.8 23.3 -9.6 7.6 3.9 14.3 13.6 14.4 20.8 0 5.9 -3 12.4 -7.3 15.5 -3.3 2.4 -5 2.9 -9.6 2.9 -7.7 0 -12.2 -1.4 -15.5 -4.9 -3.4 -3.6 -4.9 -3.2 -14 3.3 -3.4 2.4 -8.1 5.4 -10.6 6.6 -2.5 1.3 -9.7 5.8 -16 10 -6.3 4.2 -18.2 11.9 -26.5 17 -8.2 5.1 -20.2 12.5 -26.5 16.5 -10.1 6.3 -25.1 14.8 -41.7 23.6 -2.9 1.5 -8.5 5 -12.5 7.6 -4 2.7 -13.1 8.2 -20.3 12.3 -7.1 4.1 -18.7 10.9 -25.7 15.2 -7 4.3 -18.3 10.7 -25 14.4 -6.8 3.6 -16.8 9.4 -22.3 12.8 -5.5 3.5 -14.6 8.7 -20.2 11.6 -10.9 5.7 -11 5.8 -9 12.3 1.2 3.7 1.2 3.7 9.2 -0.9 4.4 -2.5 11.4 -6.4 15.5 -8.7 4.1 -2.2 13.4 -7.5 20.5 -11.8 7.2 -4.3 26.1 -15.4 42 -24.7 16 -9.3 32.8 -19.3 37.5 -22.1 4.7 -2.8 15 -8.9 23 -13.4 8 -4.6 16.8 -9.8 19.5 -11.4 2.8 -1.7 10.9 -6.5 18 -10.8 7.2 -4.2 16.4 -9.7 20.5 -12.2 18.1 -10.9 22.3 -13.3 22.7 -12.9 1.7 1.7 -15.1 14.6 -19 14.6 -1.4 0 -1.6 0.4 -0.8 1.8 2.4 4.5 -4.2 9.5 -7.1 5.3 -1.4 -2 -1.6 -1.9 -7.4 2.4 -6.2 4.7 -22 14.2 -56.4 34 -11.3 6.5 -26.3 15.3 -33.5 19.5 -7.1 4.2 -20.9 12.3 -30.5 18 -9.6 5.7 -22.2 13.1 -28 16.5 -5.8 3.4 -12.5 7.2 -15 8.5 -2.5 1.2 -10.2 5.6 -17.2 9.8 -12.8 7.5 -12.8 7.5 -12.8 17.1 -0.1 5.3 -0.7 13 -1.4 17.1 -2.8 15.7 -12.1 38.7 -21.4 53 -2 3 -7.9 9.8 -13.1 15.1 -15.8 15.9 -33.2 25.6 -57.1 31.9 -10.1 2.6 -13.1 3 -24.5 2.9 -7.1 -0.1 -16.4 -0.7 -20.5 -1.4z m15.8 -10.6 c0.3 -2.2 -0.7 -3.6 -5.1 -7.4 -3 -2.6 -6 -5.8 -6.7 -7.1 -1.7 -3.1 -2.2 -3 -6.3 0.6 -4.2 3.7 -7.3 3.9 -8.9 0.5 -1.6 -3.5 0.3 -7.2 5.8 -11.5 2.5 -1.9 8.1 -8.2 12.6 -13.9 7.7 -9.8 8.1 -10.4 6.7 -12.6 -3 -5.1 -14.1 -17.7 -30.7 -35 -12.6 -13 -18.1 -19.5 -20 -23.5 -1.5 -3 -3.3 -5.9 -3.9 -6.3 -0.7 -0.4 -3.4 -3.7 -5.9 -7.3 -4.7 -6.5 -4.7 -6.6 -3 -9.4 0.9 -1.6 1.9 -4.9 2.2 -7.4 0.7 -4.6 0.7 -4.6 -4.9 -4.6 -5.5 0 -5.5 0 -7 8.2 -1.5 8.3 -1.5 8.3 1.8 12.8 1.9 2.5 5.7 6.8 8.5 9.5 5.4 5.3 9 11 9 14.5 0 1.2 2.8 4.7 7.1 8.8 8.2 7.6 9.9 10.9 9.9 18.7 0 5.5 0 5.5 6.4 5.5 6.4 0 6.5 0 7.5 3.3 0.6 1.7 2.2 5.4 3.6 8.1 2.9 5.7 3.1 10.6 1 18 -1.2 3.9 -2.1 5.4 -4.2 6.3 -4.3 1.8 -16.5 2.6 -26.8 1.8 -9.3 -0.7 -9.3 -0.7 -10.1 -8.3 -0.4 -4.3 -0.8 -9.9 -0.9 -12.7 -0.3 -13.6 0.5 -12.5 -8.4 -12.5 -5 0 -8.3 -0.4 -8.7 -1.2 -0.4 -0.6 -1.1 -4.9 -1.5 -9.5 -0.4 -4.6 -1.2 -9 -1.8 -9.6 -0.5 -0.7 -1.3 -3.2 -1.7 -5.5 -0.5 -3.2 -1.4 -4.8 -3.8 -6.4 -1.7 -1.2 -4.8 -3.7 -6.8 -5.6 -3.9 -3.7 -6.8 -3.8 -6.8 -0.3 0 16.5 11 46.6 19.8 54.2 2.1 1.9 4.2 4.6 4.6 6.2 1 4.4 10.4 14.6 19.9 21.8 17.2 12.9 39.5 22.2 52.2 21.6 4.6 -0.2 5 -0.4 5.3 -2.8z m29.9 -0.4 c10.8 -2.6 17.4 -5.5 31.2 -13.8 12 -7.2 21.6 -16.7 31.2 -31.1 10.4 -15.4 13 -20.6 16.9 -33.6 3.2 -10.7 5.2 -27 3.3 -27 -0.6 0 -4.4 3 -8.5 6.7 -7.5 6.6 -7.5 6.6 -8.2 17.4 -0.8 11.6 -1.8 16.8 -3.8 18.1 -0.7 0.4 -3.4 0.8 -5.9 0.8 -2.6 0 -5.1 0.6 -5.7 1.3 -0.7 0.8 -2.6 1.1 -5.2 0.9 -5.3 -0.5 -6 -2.3 -6 -14.7 0 -8.3 -0.2 -9.6 -1.9 -10.5 -3.9 -2 -5.4 -1.1 -7.6 4.6 0 0.1 -1 0.5 -2.2 0.8 -2.1 0.7 -2.3 0.4 -2.3 -2.4 0 -2 1 -4.4 2.5 -6.2 4.4 -5.2 2.3 -11.8 -2.7 -8.4 -10.1 7.1 -38.2 37.8 -43.5 47.7 -2.2 4.1 -2.2 4.1 3.6 9.7 3.1 3.2 8.1 8.7 11 12.4 2.9 3.8 6.6 7.7 8.2 8.9 3.2 2.2 3.7 5 1.4 6.9 -1.9 1.6 -6.3 -0.1 -9.6 -3.6 -2.7 -2.8 -4.7 -3.1 -5.6 -0.6 -0.3 0.9 -2.8 4.7 -5.5 8.3 -2.6 3.7 -4.8 7.7 -4.8 8.9 0 2.1 0.3 2.2 4.8 1.6 2.6 -0.4 9.3 -1.8 14.9 -3.1z m-20 -16.7 c-0.3 -2.3 0 -2.8 1.7 -2.8 3.8 0 6.7 -1.2 6.2 -2.6 -0.9 -2.3 -11.7 -16.4 -12.6 -16.4 -0.5 0 -1.9 1.5 -3.1 3.3 -1.3 1.7 -3.8 5 -5.6 7.1 -1.8 2.2 -3.3 4.6 -3.3 5.3 0 0.8 1.6 2.1 3.5 2.9 1.9 0.8 3.4 1.8 3.4 2.2 -0.3 2 0.3 4 2.2 7.2 2.2 3.5 2.2 3.5 5.1 0 2.1 -2.5 2.8 -4.3 2.5 -6.2z m-40.9 -20.4 c2.2 -0.6 2.3 -1 2 -10.3 -0.3 -9.6 -0.3 -9.6 -3.2 -9.6 -2.6 0 -3.1 0.5 -4.4 4.3 -1.4 4.3 -5.5 7.3 -7.3 5.5 -0.4 -0.4 -0.9 -7.3 -1.1 -15.3 -0.3 -15.6 -1.2 -18.5 -6.2 -20.8 -2.4 -1.1 -2.4 -1 -2.8 5.1 -0.1 3.4 -0.2 14.1 0 23.9 0.3 17.8 0.3 17.8 10.5 17.8 5.6 0 11.2 -0.3 12.5 -0.6z m44.6 -30.6 c5.2 -6.2 11.8 -13.9 14.6 -17 4.8 -5.4 5 -5.8 2.7 -5.8 -3.7 0 -8.5 -3.8 -15 -11.8 -3.2 -3.9 -7.7 -8.5 -10 -10.1 -6.7 -4.7 -18.7 -16.8 -18.7 -18.8 0 -1 2.1 -3.2 5 -5.1 5.7 -3.7 5.3 -3.9 8.2 5.8 1 3.6 2.1 4.9 5.1 6.5 3.8 2 3.8 2 4.9 0 0.7 -1.1 3.3 -4.2 5.8 -7 4.6 -4.9 4.7 -5.1 3.1 -7.6 -2.5 -3.9 -13 -17.7 -14 -18.4 -0.5 -0.3 -7.5 6.4 -15.5 14.7 -8.9 9.3 -14.1 15.4 -13.2 15.6 0.8 0.2 3.3 2.7 5.5 5.5 3.6 4.8 15.2 16.4 22.6 22.7 3 2.5 7.4 7.4 12.8 13.8 1.5 1.9 2.7 4.2 2.7 5.3 0 1.6 -0.7 1.9 -4.3 1.9 -4.7 0 -6.2 -1.1 -9 -6.5 -0.9 -1.6 -2.8 -4.4 -4.4 -6.2 -2.8 -3.1 -2.8 -3.1 -9.1 3.7 -6.2 6.8 -6.2 6.8 0.4 15.1 3.7 4.6 7.4 9.9 8.2 11.7 0.9 1.7 1.7 3.2 1.8 3.2 0.1 0 4.5 -5.1 9.8 -11.2z m-77.5 -8 c0 -2.9 -0.4 -6.2 -0.9 -7.3 -0.6 -1.5 -0.1 -2.8 2.3 -5.2 2.6 -2.8 3 -3.7 2.1 -5.9 -1.6 -4.7 -3.9 -5.3 -7.4 -1.9 -5.7 5.5 -6.7 8.1 -6.1 16.5 0.6 8.1 0.6 8 8.9 8.9 0.8 0.1 1.2 -1.5 1.1 -5.1z m149.6 3 c0.2 -0.7 0.6 -4.9 0.8 -9.3 0.4 -8 0.4 -8 -9 -17.1 -7.7 -7.6 -9.3 -9.7 -9.3 -12.2 0 -2.6 0.8 -3.6 5.5 -6.8 8.7 -5.7 14.5 -13.6 14.5 -19.6 0 -4.3 -1 -5.6 -4.8 -6.7 -4.6 -1.4 -6.2 0.6 -6.2 7.8 0 6.1 -1.6 9.3 -8.4 16.4 -3.1 3.3 -4.4 2.9 -9.9 -3.2 -3.5 -3.9 -5.6 -9.8 -4.2 -12 1.2 -2 3.3 -1.1 4.3 1.7 1.3 3.8 3.9 6.2 6.7 6.2 2.9 0 3.5 -1.6 3.5 -9.8 0 -6.9 2.3 -24.3 3.5 -26.2 1.8 -2.9 4.8 0.3 5.4 5.7 0.6 4.8 0.6 4.8 8.1 5.3 8.7 0.6 8.7 0.7 8.9 12.8 0.1 4.2 0.7 8.5 1.5 10.1 0.8 1.5 4.8 5.8 8.8 9.6 7.3 7 7.3 7 7.6 1.9 0.3 -6 -2.7 -21.4 -5.7 -29.5 -2.6 -6.9 -11.2 -21.3 -15.2 -25.5 -3 -3.1 -3 -3.1 -15.2 -2.6 -6.7 0.2 -12.7 0.9 -13.4 1.4 -0.8 0.7 -1.3 5.3 -1.5 14.1 -0.3 15.1 1.8 13.5 -15.8 12.3 -13.3 -1 -13.7 -1.1 -15.9 -5.4 -3.8 -7.6 -3.2 -15.1 2 -25.4 1.9 -3.8 1.9 -3.8 25.9 -3.8 14.8 0 24 -0.4 24 -1 0 -2.5 -27.1 -20 -38.1 -24.5 -9.6 -4 -26.5 -8.5 -32 -8.5 -5.7 0 -5.1 2.8 2.6 12.2 3.6 4.4 6.5 8.6 6.5 9.4 0 1 1.6 0.3 4.7 -2.1 5.6 -4.3 10.6 -4.6 11.1 -0.7 0.3 1.8 -2.6 5.3 -13.2 16.3 -7.5 7.6 -13.6 14.4 -13.6 14.9 0 2.9 7 11.3 22.9 27.5 27.4 28 30.7 31.7 32.9 36 1.1 2.2 4.3 6.7 7.2 10 5.9 6.9 6.6 8.8 5.1 14.1 -1.9 6.7 -1.6 7.4 2.9 7.4 2.4 0 4.2 -0.5 4.5 -1.2z m-104.2 -24.9 c2.1 -3.4 3.7 -6.8 3.7 -7.5 0 -1.5 -14.9 -15.4 -16.5 -15.4 -0.6 0 -3.2 2.2 -5.9 4.9 -4.7 4.8 -4.7 4.8 0.2 10.8 4.8 5.8 12.9 13.3 14.2 13.3 0.4 0 2.3 -2.8 4.3 -6.1z m68.1 -9.7 c0.8 -1.3 -1.1 -3.6 -8.9 -10.9 -5.5 -5.1 -10.5 -9.3 -11.1 -9.3 -1.1 0 -11.4 11.1 -11.4 12.3 0 0.3 1 0.7 2.2 0.9 1.6 0.2 2.7 1.6 3.9 5 0.9 2.6 3.5 6.8 5.8 9.4 2.3 2.6 4.1 5.3 4.1 6.1 0 1.5 13.7 -10.6 15.4 -13.5z m-145.6 -9.1 c9.2 -7.3 11.3 -11.9 13.4 -28.8 1.1 -9.3 1.1 -9.3 11 -9.3 9.8 0 9.8 0 9.8 -7.7 0 -4.3 0.3 -10.7 0.6 -14.3 0.6 -6.5 0.6 -6.5 15.3 -6.5 8 0 16.5 -0.3 18.8 -0.8 4.2 -0.7 4.2 -0.7 4.8 3 0.3 2.1 1.1 5.8 1.8 8.3 1.4 5.8 1.3 14.1 -0.3 18 -1 2.5 -2.2 3.3 -6.9 4.6 -3.1 0.8 -6.6 1.9 -7.9 2.5 -1.3 0.5 -3.8 0.9 -5.7 0.9 -3.5 0 -3.5 0 -3.5 -9.8 0 -10.3 1.2 -13.8 4.2 -12.7 1.7 0.7 2.8 4.6 2.8 10.3 0 3.5 0 3.5 5.3 2.8 2.8 -0.4 5.6 -1.1 6.1 -1.6 0.7 -0.7 -0.4 -7.1 -3 -16.7 -0.3 -1.3 -23.3 -2.3 -24 -1.1 -0.8 1.3 -1.7 48.3 -1.1 51.1 0.4 1.4 2 3.5 3.6 4.6 2.9 2.1 2.9 2.1 23.6 -18.8 19.6 -19.8 25.5 -26.4 25.5 -28.4 0 -1.4 -10.8 -13.6 -19.2 -21.6 -7.9 -7.5 -9.1 -9.8 -6.2 -12.1 1.2 -1.1 2.6 -0.9 8.1 1 6.6 2.3 6.6 2.3 9 -0.6 5.2 -6.3 11.5 -15.5 11 -16 -0.3 -0.3 -4.8 -0.1 -9.9 0.4 -10.7 1.2 -25.5 5.3 -31.3 8.6 -2.2 1.3 -6.8 3.9 -10.3 5.9 -6.2 3.6 -20.2 14.5 -20.2 15.7 0 0.4 -2.4 3.1 -5.4 6.1 -9.2 9.2 -18.5 25.9 -23.6 42.4 -2.4 7.9 -3.9 24.5 -2.2 24.5 0.5 0 3.2 -1.8 6 -3.9z m150.2 -43.8 c0 -2.1 0.3 -6.1 0.6 -8.9 0.6 -5.1 0.6 -5.1 -3.4 -5.8 -5.4 -0.8 -8.3 0.5 -10.6 4.8 -1 1.9 -2.2 3.3 -2.6 3.1 -1.2 -0.7 -1.8 3.9 -0.9 6.3 0.9 2.5 5.4 4 12.2 4.1 4.7 0.1 4.7 0.1 4.7 -3.6z m-41.6 -23.2 c7.8 -9.1 8.6 -10.4 6.2 -9.5 -2.8 1.1 -8.5 -2.4 -11.3 -6.9 -2.8 -4.5 -2.8 -4.5 -9.6 1.9 -6.8 6.5 -6.8 6.5 -4.5 9.7 6.1 8.8 9.9 13.7 10.7 13.7 0.5 0 4.3 -4 8.5 -8.9z m400.3 -110.5 c3.3 -3.6 4.9 -8.9 3.9 -13 -1.4 -5.6 -9 -11.6 -14.7 -11.6 -3.4 0 -9.9 7.4 -9.9 11.1 0 2.4 0.4 3 1.6 2.5 0.9 -0.3 3.3 -0.9 5.4 -1.2 3.2 -0.5 4 -0.3 5 1.5 0.6 1.2 1 3.2 0.8 4.4 -0.2 1.8 -1.1 2.3 -4.7 2.7 -3.9 0.4 -4.4 0.8 -4.7 3.2 -0.2 2.4 0.2 2.9 2.9 3.7 5.7 1.8 10.8 0.6 14.4 -3.3z"/>
  <path d="M395.3 445.3 c-3.3 -5.2 -3.8 -6.6 -4.1 -13.6 -0.4 -7.7 -0.4 -8 3.3 -13.3 2.1 -3 4.7 -5.6 5.9 -5.9 1.1 -0.2 6.7 -0.7 12.3 -1 11.8 -0.7 10.8 -1.7 11.7 11.3 0.3 3.9 0.8 7.7 1.1 8.2 0.3 0.6 4.1 1 8.4 1 8.4 0 7.7 -0.4 10.9 6.3 0.5 1 -7.5 0.8 -12.3 -0.3 -2.2 -0.5 -4.1 -0.7 -4.3 -0.6 -0.1 0.2 0.7 2.7 1.8 5.6 1.2 2.9 1.9 5.9 1.6 6.7 -0.4 1 -4.1 1.3 -16.5 1.3 -16 0 -16 0 -19.8 -5.7z"/>
  <path d="M453.6 470.8 c6.6 -6.9 14 -15.8 16.7 -20 1.2 -1.9 2.6 -2.8 4.3 -2.8 3.1 0 4.1 2.4 1.9 4.6 -2 2.1 -1.2 8.1 1.3 10.1 0.9 0.7 1.2 1.3 0.6 1.3 -0.6 0 -1.1 0.6 -1.1 1.3 0 0.7 -0.8 2.5 -1.7 3.9 -1.6 2.5 -2.2 2.6 -6.6 2.1 -4.6 -0.5 -11 1.2 -11 2.9 0 0.5 -0.9 0.8 -1.9 0.8 -1.1 0 -2.3 0.5 -2.6 1 -0.3 0.6 -1.8 1 -3.3 1 -2.5 0 -2.3 -0.3 3.4 -6.2z"/>
  <path d="M584.9 467.8 c-0.6 -2.6 -0.6 -3.9 0.2 -4.4 1.4 -0.8 1.1 -2.4 -0.6 -2.4 -0.8 0 -1.9 -0.9 -2.5 -1.9 -0.5 -1.1 -2 -2.2 -3.2 -2.6 -1.3 -0.3 -3.2 -1 -4.3 -1.4 -4.4 -1.8 -9.2 -3.1 -11.3 -3.1 -4.6 0 -2.7 -2 7 -7.4 16.8 -9.5 56.9 -25.1 71.5 -28 22.7 -4.3 42.8 -6.7 56.9 -6.7 10.4 0 34.3 3.2 45.9 6.2 16.6 4.2 42.5 14.6 42.5 17 0 0.5 -1 1.5 -2.2 2.3 -4.3 2.7 -7.1 2.8 -12 0.3 -4 -2 -5 -2.2 -5.9 -1 -0.7 0.7 -1.4 1.1 -1.6 0.9 -0.6 -0.6 -14.6 6.4 -15.4 7.7 -0.4 0.5 -2.7 1.2 -5.3 1.4 -2.5 0.3 -4.6 0.9 -4.6 1.3 0 0.3 -3 0 -6.7 -0.7 -9.5 -2 -27.2 -3 -47.3 -2.7 -14.2 0.1 -19.9 0.7 -30 2.7 -26.9 5.5 -41.8 10 -57.1 17.1 -9.2 4.3 -13.8 6.1 -14 5.4z"/>
  <path d="M513.5 456.3 c-2.2 -2.3 -4.4 -4.3 -4.9 -4.3 -0.9 0 -2.9 -2.2 -4.6 -5.2 -0.8 -1.3 0.6 -2.7 8.3 -7.9 5 -3.4 12.2 -8.4 15.9 -11.1 15.9 -11.6 59.5 -33.5 83.8 -42 4.8 -1.7 24.6 -7.3 35 -9.9 18.9 -4.7 56.8 -6.8 73 -4 18.7 3.3 35.2 7.2 43.1 10.3 9.1 3.5 9 3.4 7.4 9.5 -0.4 1.6 -0.1 2.5 1 2.9 1.3 0.5 1.3 0.9 0.3 2.1 -0.7 0.8 -1.3 4.1 -1.3 7.2 -0.1 7.9 -0.7 8.5 -5.7 6 -6.9 -3.5 -26.6 -8.8 -39.3 -10.6 -14.6 -2 -51 -2.3 -60 -0.5 -3.3 0.6 -10.7 2.1 -16.5 3.2 -10 1.9 -35.3 10 -54.8 17.4 -13.3 5.1 -31.6 15 -62.3 33.8 -5.8 3.6 -11.4 6.7 -12.5 6.9 -1.3 0.3 -3.2 -0.9 -5.9 -3.8z"/>
 </g>
<g>
   <text fill="#000000" font-family="Arial" x="51.207237%" y="80.69973%" text-anchor="middle" dominant-baseline="central" font-size="112.19308">STEPPETUNE</text>
</g>
</svg>